<svg width="308" height="76" viewBox="0 0 308 76" fill="none" xmlns="http://www.w3.org/2000/svg">
<rect width="308" height="76" rx="38" fill="#F86C6F"/>
<g filter="url(#filter0_d_2847_7862)">
<path d="M85.6 48H81.1L75.64 41.19V48H71.77V33H75.64V39.6L80.8 33H85.42L79.39 40.41L85.6 48ZM108.742 33V48H104.872V36.63H98.9017V48H95.0317V33H108.742ZM125.068 46.14C123.528 47.66 121.648 48.42 119.428 48.42C117.208 48.42 115.328 47.66 113.788 46.14C112.268 44.6 111.508 42.72 111.508 40.5C111.508 38.28 112.268 36.41 113.788 34.89C115.328 33.35 117.208 32.58 119.428 32.58C121.648 32.58 123.528 33.35 125.068 34.89C126.608 36.41 127.378 38.28 127.378 40.5C127.378 42.72 126.608 44.6 125.068 46.14ZM116.518 43.47C117.298 44.25 118.268 44.64 119.428 44.64C120.588 44.64 121.558 44.25 122.338 43.47C123.118 42.69 123.508 41.7 123.508 40.5C123.508 39.3 123.118 38.31 122.338 37.53C121.558 36.75 120.588 36.36 119.428 36.36C118.268 36.36 117.298 36.75 116.518 37.53C115.758 38.31 115.378 39.3 115.378 40.5C115.378 41.7 115.758 42.69 116.518 43.47ZM143.93 48H139.43L133.97 41.19V48H130.1V33H133.97V39.6L139.13 33H143.75L137.72 40.41L143.93 48ZM155.495 33H159.635L154.175 48C152.655 52.22 150.015 54.22 146.255 54V50.4C147.275 50.42 148.075 50.23 148.655 49.83C149.255 49.43 149.735 48.76 150.095 47.82L144.035 33H148.145L152.165 43.08L155.495 33ZM175.187 33V48H171.317V36.63H165.347V48H161.477V33H175.187ZM192.563 48H188.063L182.603 41.19V48H178.733V33H182.603V39.6L187.763 33H192.383L186.353 40.41L192.563 48ZM204.811 33H208.681V48H204.811V46.23C203.651 47.69 202.021 48.42 199.921 48.42C197.921 48.42 196.201 47.66 194.761 46.14C193.341 44.6 192.631 42.72 192.631 40.5C192.631 38.28 193.341 36.41 194.761 34.89C196.201 33.35 197.921 32.58 199.921 32.58C202.021 32.58 203.651 33.31 204.811 34.77V33ZM197.671 43.56C198.451 44.34 199.441 44.73 200.641 44.73C201.841 44.73 202.831 44.34 203.611 43.56C204.411 42.76 204.811 41.74 204.811 40.5C204.811 39.26 204.411 38.25 203.611 37.47C202.831 36.67 201.841 36.27 200.641 36.27C199.441 36.27 198.451 36.67 197.671 37.47C196.891 38.25 196.501 39.26 196.501 40.5C196.501 41.74 196.891 42.76 197.671 43.56ZM227.79 33V48H224.04V39.24L220.23 45.24H219.75L215.91 39.18V48H212.19V33H216L219.99 39.3L223.98 33H227.79ZM232.041 40.95L231.231 33V27H235.881V33L235.101 40.95H232.041ZM235.371 47.64C234.871 48.14 234.271 48.39 233.571 48.39C232.871 48.39 232.271 48.14 231.771 47.64C231.271 47.14 231.021 46.54 231.021 45.84C231.021 45.14 231.271 44.54 231.771 44.04C232.271 43.54 232.871 43.29 233.571 43.29C234.271 43.29 234.871 43.54 235.371 44.04C235.871 44.54 236.121 45.14 236.121 45.84C236.121 46.54 235.871 47.14 235.371 47.64Z" fill="white"/>
</g>
<defs>
<filter id="filter0_d_2847_7862" x="61.77" y="22" width="184.351" height="47.3301" filterUnits="userSpaceOnUse" color-interpolation-filters="sRGB">
<feFlood flood-opacity="0" result="BackgroundImageFix"/>
<feColorMatrix in="SourceAlpha" type="matrix" values="0 0 0 0 0 0 0 0 0 0 0 0 0 0 0 0 0 0 127 0" result="hardAlpha"/>
<feOffset dy="5"/>
<feGaussianBlur stdDeviation="5"/>
<feComposite in2="hardAlpha" operator="out"/>
<feColorMatrix type="matrix" values="0 0 0 0 0 0 0 0 0 0 0 0 0 0 0 0 0 0 0.25 0"/>
<feBlend mode="normal" in2="BackgroundImageFix" result="effect1_dropShadow_2847_7862"/>
<feBlend mode="normal" in="SourceGraphic" in2="effect1_dropShadow_2847_7862" result="shape"/>
</filter>
</defs>
</svg>
