<svg width="41" height="42" viewBox="0 0 41 42" fill="none" xmlns="http://www.w3.org/2000/svg">
<path d="M0.797852 14.5991C0.797852 14.5991 1.65705 3.48703 13.7894 1.33984" stroke="white" stroke-width="1.5" stroke-linecap="round" stroke-linejoin="round"/>
<path d="M19.1144 11.6445C19.077 11.3199 18.9121 11.0235 18.656 10.8204C18.4 10.6174 18.0738 10.5244 17.7492 10.5618C15.7943 10.7869 13.7145 12.093 12.5201 13.2873C11.3258 14.4816 10.0049 16.591 9.78973 18.5674C9.76924 18.7297 9.78128 18.8944 9.82516 19.052C9.86903 19.2097 9.94385 19.3569 10.0452 19.4853C10.1467 19.6137 10.2726 19.7206 10.4158 19.7998C10.5589 19.879 10.7164 19.9289 10.8791 19.9466C11.0417 19.9642 11.2062 19.9493 11.3631 19.9027C11.5199 19.8561 11.6659 19.7788 11.7925 19.6752C11.9191 19.5716 12.0238 19.4438 12.1005 19.2993C12.1772 19.1548 12.2243 18.9964 12.2392 18.8335C12.3657 17.6753 13.2249 16.0768 14.2632 15.0287C15.3014 13.9806 16.8917 13.1411 18.0302 13.0097C18.191 12.9913 18.3467 12.9414 18.4883 12.8628C18.6299 12.7843 18.7546 12.6786 18.8553 12.5518C18.956 12.425 19.0307 12.2796 19.0751 12.1239C19.1196 11.9682 19.133 11.8053 19.1144 11.6445Z" fill="white"/>
<path d="M3.12598 32.5266V36.2013L6.80064 39.141H14.8849L22.2342 36.2013L27.3788 31.7917L32.5233 27.3821L36.9329 20.7677L39.1377 15.6232V10.4787L37.6678 6.06906L34.7281 3.86426H33.2582L30.3185 6.06906L27.3788 9.00879L25.9089 11.9485L28.8486 16.3581L28.1137 19.2979L26.6438 20.7677L24.439 24.4424L20.0294 27.3821L16.3548 29.5869L14.15 28.1171L11.2102 25.9123L8.27051 27.3821L3.12598 32.5266Z" fill="white"/>
<path d="M2.35574 37.3589C3.52215 38.8046 5.11898 40.7859 9.5842 41.3017C9.86206 41.3292 10.1412 41.3418 10.4204 41.3395C12.6941 41.3395 20.8573 40.597 30.4203 31.0373C38.9811 22.4732 41.9464 16.4161 40.6567 10.106C39.7335 5.60298 37.261 3.41966 36.7682 3.02373C35.9661 2.24179 34.8901 1.80434 33.77 1.80475C33.2303 1.80173 32.6953 1.90589 32.1962 2.1112C31.697 2.3165 31.2436 2.61885 30.8622 3.00073L25.1172 8.74572C23.4974 10.3656 23.5319 13.0384 25.1944 14.7043L27.4303 16.9385C26.461 18.6849 25.1303 20.9848 22.74 23.3784C20.3497 25.772 18.0366 27.1011 16.2952 28.0605L14.0609 25.8263C13.6618 25.4231 13.1866 25.1031 12.6629 24.8848C12.1393 24.6666 11.5775 24.5544 11.0102 24.5547C10.4713 24.5517 9.93711 24.6552 9.43837 24.8593C8.93962 25.0634 8.48615 25.3641 8.10401 25.7441L2.36888 31.4924C0.852545 33.0186 0.852545 35.4845 2.35574 37.3589ZM4.11357 33.2338L9.85034 27.4954C10.161 27.1907 10.5799 27.0217 11.0151 27.0255C11.2597 27.0255 11.5019 27.0741 11.7276 27.1686C11.9532 27.2631 12.1578 27.4015 12.3294 27.5759L14.7016 29.9481C14.8867 30.164 15.1163 30.3373 15.3746 30.4561C15.6329 30.5749 15.9139 30.6365 16.1982 30.6365C16.5719 30.6331 16.9387 30.5353 17.2644 30.3523C19.1504 29.3074 21.7362 27.8732 24.4929 25.1215C27.2496 22.3697 28.6887 19.7691 29.7368 17.8782C29.9508 17.5136 30.0449 17.091 30.0056 16.67C29.9664 16.2491 29.796 15.8511 29.5183 15.5323L29.4773 15.4895L26.9473 12.9629C26.2442 12.2581 26.2097 11.1558 26.8701 10.4888L32.6003 4.74871C32.753 4.59655 32.9345 4.47634 33.1342 4.39511C33.334 4.31387 33.5478 4.27324 33.7634 4.27557C34.0081 4.27645 34.2501 4.32566 34.4756 4.42039C34.7012 4.51512 34.9058 4.6535 35.0777 4.82756L35.1418 4.89328L35.2157 4.94749C35.2978 5.00992 37.4335 6.67904 38.2369 10.6071C39.3392 15.9873 36.5677 21.4037 28.6739 29.3008C19.7813 38.1902 12.4493 38.8818 10.4155 38.8818C10.0573 38.8818 9.86841 38.8605 9.86677 38.8605C6.40696 38.4547 5.37198 37.1717 4.28114 35.8114C3.68643 35.082 3.38579 33.9648 4.11357 33.2338V33.2338Z" fill="white"/>
<path d="M17.9623 6.48253C17.944 6.32172 17.8941 6.16611 17.8155 6.02462C17.7369 5.88313 17.6312 5.75853 17.5044 5.65796C17.3776 5.5574 17.2321 5.48284 17.0765 5.43855C16.9208 5.39427 16.7579 5.38113 16.5972 5.3999C13.921 5.71697 10.9277 7.23001 8.78548 9.37227C6.64323 11.5145 5.09732 14.5587 4.8049 17.2579C4.76941 17.5827 4.8644 17.9083 5.06897 18.1631C5.27354 18.4179 5.57093 18.581 5.89574 18.6165C5.94174 18.6165 5.98609 18.6165 6.03045 18.6165C6.33274 18.6175 6.62487 18.5074 6.8514 18.3072C7.07792 18.1071 7.22307 17.8307 7.25929 17.5306C7.49093 15.3949 8.77727 12.8715 10.5335 11.1235C12.2896 9.37555 14.7621 8.0925 16.8797 7.85265C17.0409 7.83411 17.1968 7.78391 17.3386 7.70494C17.4803 7.62598 17.6051 7.51979 17.7057 7.39249C17.8063 7.26518 17.8807 7.11926 17.9248 6.96311C17.9688 6.80695 17.9816 6.64363 17.9623 6.48253V6.48253Z" fill="white"/>
</svg>
