<svg width="294" height="289" viewBox="0 0 294 289" fill="none" xmlns="http://www.w3.org/2000/svg">
<mask id="mask0_2847_17754" style="mask-type:alpha" maskUnits="userSpaceOnUse" x="79" y="-178" width="387" height="387">
<circle cx="272.613" cy="15.6131" r="192.767" transform="rotate(45 272.613 15.6131)" fill="#C84C4C"/>
</mask>
<g mask="url(#mask0_2847_17754)">
<rect x="298.727" y="-283.114" width="7.27421" height="459.394" transform="rotate(45 298.727 -283.114)" fill="#9BC1FA"/>
<rect x="319.302" y="-262.539" width="7.27421" height="459.394" transform="rotate(45 319.302 -262.539)" fill="#9BC1FA"/>
<rect x="339.876" y="-241.965" width="7.27421" height="459.394" transform="rotate(45 339.876 -241.965)" fill="#9BC1FA"/>
<rect x="360.451" y="-221.39" width="7.27421" height="459.394" transform="rotate(45 360.451 -221.39)" fill="#9BC1FA"/>
<rect x="381.025" y="-200.815" width="7.27421" height="459.394" transform="rotate(45 381.025 -200.815)" fill="#9BC1FA"/>
<rect x="401.6" y="-180.241" width="7.27421" height="459.394" transform="rotate(45 401.6 -180.241)" fill="#9BC1FA"/>
<rect x="422.174" y="-159.666" width="7.27421" height="459.394" transform="rotate(45 422.174 -159.666)" fill="#9BC1FA"/>
<rect x="442.749" y="-139.092" width="7.27421" height="459.394" transform="rotate(45 442.749 -139.092)" fill="#9BC1FA"/>
<rect x="463.323" y="-118.517" width="7.27421" height="459.394" transform="rotate(45 463.323 -118.517)" fill="#9BC1FA"/>
<rect x="483.898" y="-97.9434" width="7.27421" height="459.394" transform="rotate(45 483.898 -97.9434)" fill="#9BC1FA"/>
<rect x="504.473" y="-77.3682" width="7.27421" height="459.394" transform="rotate(45 504.473 -77.3682)" fill="#9BC1FA"/>
<rect x="525.047" y="-56.7939" width="7.27421" height="459.394" transform="rotate(45 525.047 -56.7939)" fill="#9BC1FA"/>
<rect x="545.622" y="-36.2197" width="7.27421" height="459.394" transform="rotate(45 545.622 -36.2197)" fill="#9BC1FA"/>
<rect x="566.197" y="-15.6445" width="7.27421" height="459.394" transform="rotate(45 566.197 -15.6445)" fill="#9BC1FA"/>
</g>
</svg>
