<svg width="416" height="256" viewBox="0 0 416 256" fill="none" xmlns="http://www.w3.org/2000/svg">
<mask id="mask0_2847_7520" style="mask-type:alpha" maskUnits="userSpaceOnUse" x="-51" y="79" width="387" height="387">
<circle cx="142.613" cy="272.613" r="192.767" transform="rotate(45 142.613 272.613)" fill="#C84C4C"/>
</mask>
<g mask="url(#mask0_2847_7520)">
<rect x="168.727" y="-26.1143" width="7.27421" height="459.394" transform="rotate(45 168.727 -26.1143)" fill="#9BC1FA"/>
<rect x="189.302" y="-5.53906" width="7.27421" height="459.394" transform="rotate(45 189.302 -5.53906)" fill="#9BC1FA"/>
<rect x="209.876" y="15.0352" width="7.27421" height="459.394" transform="rotate(45 209.876 15.0352)" fill="#9BC1FA"/>
<rect x="230.451" y="35.6104" width="7.27421" height="459.394" transform="rotate(45 230.451 35.6104)" fill="#9BC1FA"/>
<rect x="251.025" y="56.1846" width="7.27421" height="459.394" transform="rotate(45 251.025 56.1846)" fill="#9BC1FA"/>
<rect x="271.6" y="76.7588" width="7.27421" height="459.394" transform="rotate(45 271.6 76.7588)" fill="#9BC1FA"/>
<rect x="292.174" y="97.334" width="7.27421" height="459.394" transform="rotate(45 292.174 97.334)" fill="#9BC1FA"/>
<rect x="312.749" y="117.908" width="7.27421" height="459.394" transform="rotate(45 312.749 117.908)" fill="#9BC1FA"/>
<rect x="333.323" y="138.483" width="7.27421" height="459.394" transform="rotate(45 333.323 138.483)" fill="#9BC1FA"/>
<rect x="353.898" y="159.057" width="7.27421" height="459.394" transform="rotate(45 353.898 159.057)" fill="#9BC1FA"/>
<rect x="374.473" y="179.632" width="7.27421" height="459.394" transform="rotate(45 374.473 179.632)" fill="#9BC1FA"/>
<rect x="395.047" y="200.206" width="7.27421" height="459.394" transform="rotate(45 395.047 200.206)" fill="#9BC1FA"/>
<rect x="415.622" y="220.78" width="7.27421" height="459.394" transform="rotate(45 415.622 220.78)" fill="#9BC1FA"/>
<rect x="436.196" y="241.355" width="7.27421" height="459.394" transform="rotate(45 436.196 241.355)" fill="#9BC1FA"/>
</g>
</svg>
