<svg width="240" height="240" viewBox="0 0 240 240" fill="none" xmlns="http://www.w3.org/2000/svg">
<mask id="mask0_2847_8327" style="mask-type:alpha" maskUnits="userSpaceOnUse" x="0" y="0" width="240" height="240">
<circle cx="120" cy="120" r="120" fill="#C4C4C4"/>
</mask>
<g mask="url(#mask0_2847_8327)">
<circle cx="3.20611" cy="139.694" r="3.20611" fill="#9BC1FA"/>
<circle cx="3.20611" cy="155.267" r="3.20611" fill="#9BC1FA"/>
<circle cx="3.20611" cy="170.84" r="3.20611" fill="#9BC1FA"/>
<circle cx="3.20611" cy="186.412" r="3.20611" fill="#9BC1FA"/>
<circle cx="3.20611" cy="201.984" r="3.20611" fill="#9BC1FA"/>
<circle cx="3.20611" cy="217.557" r="3.20611" fill="#9BC1FA"/>
<circle cx="3.20611" cy="233.13" r="3.20611" fill="#9BC1FA"/>
<circle cx="18.7787" cy="139.694" r="3.20611" fill="#9BC1FA"/>
<circle cx="18.7787" cy="155.267" r="3.20611" fill="#9BC1FA"/>
<circle cx="18.7787" cy="170.84" r="3.20611" fill="#9BC1FA"/>
<circle cx="18.7787" cy="186.412" r="3.20611" fill="#9BC1FA"/>
<circle cx="18.7787" cy="201.984" r="3.20611" fill="#9BC1FA"/>
<circle cx="18.7787" cy="217.557" r="3.20611" fill="#9BC1FA"/>
<circle cx="18.7787" cy="233.13" r="3.20611" fill="#9BC1FA"/>
<circle cx="34.3511" cy="139.694" r="3.20611" fill="#9BC1FA"/>
<circle cx="34.3511" cy="155.267" r="3.20611" fill="#9BC1FA"/>
<circle cx="34.3511" cy="170.84" r="3.20611" fill="#9BC1FA"/>
<circle cx="34.3511" cy="186.412" r="3.20611" fill="#9BC1FA"/>
<circle cx="34.3511" cy="201.984" r="3.20611" fill="#9BC1FA"/>
<circle cx="34.3511" cy="217.557" r="3.20611" fill="#9BC1FA"/>
<circle cx="34.3511" cy="233.13" r="3.20611" fill="#9BC1FA"/>
<circle cx="49.9238" cy="139.694" r="3.20611" fill="#9BC1FA"/>
<circle cx="49.9238" cy="155.267" r="3.20611" fill="#9BC1FA"/>
<circle cx="49.9238" cy="170.84" r="3.20611" fill="#9BC1FA"/>
<circle cx="49.9238" cy="186.412" r="3.20611" fill="#9BC1FA"/>
<circle cx="49.9238" cy="201.984" r="3.20611" fill="#9BC1FA"/>
<circle cx="49.9238" cy="217.557" r="3.20611" fill="#9BC1FA"/>
<circle cx="49.9238" cy="233.13" r="3.20611" fill="#9BC1FA"/>
<circle cx="65.4964" cy="139.694" r="3.20611" fill="#9BC1FA"/>
<circle cx="65.4964" cy="155.267" r="3.20611" fill="#9BC1FA"/>
<circle cx="65.4964" cy="170.84" r="3.20611" fill="#9BC1FA"/>
<circle cx="65.4964" cy="186.412" r="3.20611" fill="#9BC1FA"/>
<circle cx="65.4964" cy="201.984" r="3.20611" fill="#9BC1FA"/>
<circle cx="65.4964" cy="217.557" r="3.20611" fill="#9BC1FA"/>
<circle cx="65.4964" cy="233.13" r="3.20611" fill="#9BC1FA"/>
<circle cx="81.0687" cy="139.694" r="3.20611" fill="#9BC1FA"/>
<circle cx="81.0687" cy="155.267" r="3.20611" fill="#9BC1FA"/>
<circle cx="81.0687" cy="170.84" r="3.20611" fill="#9BC1FA"/>
<circle cx="81.0687" cy="186.412" r="3.20611" fill="#9BC1FA"/>
<circle cx="81.0687" cy="201.984" r="3.20611" fill="#9BC1FA"/>
<circle cx="81.0687" cy="217.557" r="3.20611" fill="#9BC1FA"/>
<circle cx="81.0687" cy="233.13" r="3.20611" fill="#9BC1FA"/>
<circle cx="96.6414" cy="139.694" r="3.20611" fill="#9BC1FA"/>
<circle cx="96.6414" cy="155.267" r="3.20611" fill="#9BC1FA"/>
<circle cx="96.6414" cy="170.84" r="3.20611" fill="#9BC1FA"/>
<circle cx="96.6414" cy="186.412" r="3.20611" fill="#9BC1FA"/>
<circle cx="96.6414" cy="201.984" r="3.20611" fill="#9BC1FA"/>
<circle cx="96.6414" cy="217.557" r="3.20611" fill="#9BC1FA"/>
<circle cx="96.6414" cy="233.13" r="3.20611" fill="#9BC1FA"/>
<circle cx="112.214" cy="139.694" r="3.20611" fill="#9BC1FA"/>
<circle cx="112.214" cy="155.267" r="3.20611" fill="#9BC1FA"/>
<circle cx="112.214" cy="170.84" r="3.20611" fill="#9BC1FA"/>
<circle cx="112.214" cy="186.412" r="3.20611" fill="#9BC1FA"/>
<circle cx="112.214" cy="201.984" r="3.20611" fill="#9BC1FA"/>
<circle cx="112.214" cy="217.557" r="3.20611" fill="#9BC1FA"/>
<circle cx="112.214" cy="233.13" r="3.20611" fill="#9BC1FA"/>
<circle cx="3.20611" cy="15.1143" r="3.20611" fill="#9BC1FA"/>
<circle cx="3.20611" cy="30.6866" r="3.20611" fill="#9BC1FA"/>
<circle cx="3.20611" cy="46.2598" r="3.20611" fill="#9BC1FA"/>
<circle cx="3.20611" cy="61.8321" r="3.20611" fill="#9BC1FA"/>
<circle cx="3.20611" cy="77.4044" r="3.20611" fill="#9BC1FA"/>
<circle cx="3.20611" cy="92.9766" r="3.20611" fill="#9BC1FA"/>
<circle cx="3.20611" cy="108.55" r="3.20611" fill="#9BC1FA"/>
<circle cx="3.20611" cy="124.122" r="3.20611" fill="#9BC1FA"/>
<circle cx="18.7787" cy="15.1143" r="3.20611" fill="#9BC1FA"/>
<circle cx="18.7787" cy="30.6866" r="3.20611" fill="#9BC1FA"/>
<circle cx="18.7787" cy="46.2598" r="3.20611" fill="#9BC1FA"/>
<circle cx="18.7787" cy="61.8321" r="3.20611" fill="#9BC1FA"/>
<circle cx="18.7787" cy="77.4044" r="3.20611" fill="#9BC1FA"/>
<circle cx="18.7787" cy="92.9766" r="3.20611" fill="#9BC1FA"/>
<circle cx="18.7787" cy="108.55" r="3.20611" fill="#9BC1FA"/>
<circle cx="18.7787" cy="124.122" r="3.20611" fill="#9BC1FA"/>
<circle cx="34.3511" cy="15.1143" r="3.20611" fill="#9BC1FA"/>
<circle cx="34.3511" cy="30.6866" r="3.20611" fill="#9BC1FA"/>
<circle cx="34.3511" cy="46.2598" r="3.20611" fill="#9BC1FA"/>
<circle cx="34.3511" cy="61.8321" r="3.20611" fill="#9BC1FA"/>
<circle cx="34.3511" cy="77.4044" r="3.20611" fill="#9BC1FA"/>
<circle cx="34.3511" cy="92.9766" r="3.20611" fill="#9BC1FA"/>
<circle cx="34.3511" cy="108.55" r="3.20611" fill="#9BC1FA"/>
<circle cx="34.3511" cy="124.122" r="3.20611" fill="#9BC1FA"/>
<circle cx="49.9238" cy="15.1143" r="3.20611" fill="#9BC1FA"/>
<circle cx="49.9238" cy="30.6866" r="3.20611" fill="#9BC1FA"/>
<circle cx="49.9238" cy="46.2598" r="3.20611" fill="#9BC1FA"/>
<circle cx="49.9238" cy="61.8321" r="3.20611" fill="#9BC1FA"/>
<circle cx="49.9238" cy="77.4044" r="3.20611" fill="#9BC1FA"/>
<circle cx="49.9238" cy="92.9766" r="3.20611" fill="#9BC1FA"/>
<circle cx="49.9238" cy="108.55" r="3.20611" fill="#9BC1FA"/>
<circle cx="49.9238" cy="124.122" r="3.20611" fill="#9BC1FA"/>
<circle cx="65.4964" cy="15.1143" r="3.20611" fill="#9BC1FA"/>
<circle cx="65.4964" cy="30.6866" r="3.20611" fill="#9BC1FA"/>
<circle cx="65.4964" cy="46.2598" r="3.20611" fill="#9BC1FA"/>
<circle cx="65.4964" cy="61.8321" r="3.20611" fill="#9BC1FA"/>
<circle cx="65.4964" cy="77.4044" r="3.20611" fill="#9BC1FA"/>
<circle cx="65.4964" cy="92.9766" r="3.20611" fill="#9BC1FA"/>
<circle cx="65.4964" cy="108.55" r="3.20611" fill="#9BC1FA"/>
<circle cx="65.4964" cy="124.122" r="3.20611" fill="#9BC1FA"/>
<circle cx="81.0687" cy="15.1143" r="3.20611" fill="#9BC1FA"/>
<circle cx="81.0687" cy="30.6866" r="3.20611" fill="#9BC1FA"/>
<circle cx="81.0687" cy="46.2598" r="3.20611" fill="#9BC1FA"/>
<circle cx="81.0687" cy="61.8321" r="3.20611" fill="#9BC1FA"/>
<circle cx="81.0687" cy="77.4044" r="3.20611" fill="#9BC1FA"/>
<circle cx="81.0687" cy="92.9766" r="3.20611" fill="#9BC1FA"/>
<circle cx="81.0687" cy="108.55" r="3.20611" fill="#9BC1FA"/>
<circle cx="81.0687" cy="124.122" r="3.20611" fill="#9BC1FA"/>
<circle cx="96.6414" cy="15.1143" r="3.20611" fill="#9BC1FA"/>
<circle cx="96.6414" cy="30.6866" r="3.20611" fill="#9BC1FA"/>
<circle cx="96.6414" cy="46.2598" r="3.20611" fill="#9BC1FA"/>
<circle cx="96.6414" cy="61.8321" r="3.20611" fill="#9BC1FA"/>
<circle cx="96.6414" cy="77.4044" r="3.20611" fill="#9BC1FA"/>
<circle cx="96.6414" cy="92.9766" r="3.20611" fill="#9BC1FA"/>
<circle cx="96.6414" cy="108.55" r="3.20611" fill="#9BC1FA"/>
<circle cx="96.6414" cy="124.122" r="3.20611" fill="#9BC1FA"/>
<circle cx="112.214" cy="15.1143" r="3.20611" fill="#9BC1FA"/>
<circle cx="112.214" cy="30.6866" r="3.20611" fill="#9BC1FA"/>
<circle cx="112.214" cy="46.2598" r="3.20611" fill="#9BC1FA"/>
<circle cx="112.214" cy="61.8321" r="3.20611" fill="#9BC1FA"/>
<circle cx="112.214" cy="77.4044" r="3.20611" fill="#9BC1FA"/>
<circle cx="112.214" cy="92.9766" r="3.20611" fill="#9BC1FA"/>
<circle cx="112.214" cy="108.55" r="3.20611" fill="#9BC1FA"/>
<circle cx="112.214" cy="124.122" r="3.20611" fill="#9BC1FA"/>
<circle cx="127.786" cy="139.694" r="3.20611" fill="#9BC1FA"/>
<circle cx="127.786" cy="155.267" r="3.20611" fill="#9BC1FA"/>
<circle cx="127.786" cy="170.84" r="3.20611" fill="#9BC1FA"/>
<circle cx="127.786" cy="186.412" r="3.20611" fill="#9BC1FA"/>
<circle cx="127.786" cy="201.984" r="3.20611" fill="#9BC1FA"/>
<circle cx="127.786" cy="217.557" r="3.20611" fill="#9BC1FA"/>
<circle cx="127.786" cy="233.13" r="3.20611" fill="#9BC1FA"/>
<circle cx="143.359" cy="139.694" r="3.20611" fill="#9BC1FA"/>
<circle cx="143.359" cy="155.267" r="3.20611" fill="#9BC1FA"/>
<circle cx="143.359" cy="170.84" r="3.20611" fill="#9BC1FA"/>
<circle cx="143.359" cy="186.412" r="3.20611" fill="#9BC1FA"/>
<circle cx="143.359" cy="201.984" r="3.20611" fill="#9BC1FA"/>
<circle cx="143.359" cy="217.557" r="3.20611" fill="#9BC1FA"/>
<circle cx="143.359" cy="233.13" r="3.20611" fill="#9BC1FA"/>
<circle cx="158.931" cy="139.694" r="3.20611" fill="#9BC1FA"/>
<circle cx="158.931" cy="155.267" r="3.20611" fill="#9BC1FA"/>
<circle cx="158.931" cy="170.84" r="3.20611" fill="#9BC1FA"/>
<circle cx="158.931" cy="186.412" r="3.20611" fill="#9BC1FA"/>
<circle cx="158.931" cy="201.984" r="3.20611" fill="#9BC1FA"/>
<circle cx="158.931" cy="217.557" r="3.20611" fill="#9BC1FA"/>
<circle cx="158.931" cy="233.13" r="3.20611" fill="#9BC1FA"/>
<circle cx="174.504" cy="139.694" r="3.20611" fill="#9BC1FA"/>
<circle cx="174.504" cy="155.267" r="3.20611" fill="#9BC1FA"/>
<circle cx="174.504" cy="170.84" r="3.20611" fill="#9BC1FA"/>
<circle cx="174.504" cy="186.412" r="3.20611" fill="#9BC1FA"/>
<circle cx="174.504" cy="201.984" r="3.20611" fill="#9BC1FA"/>
<circle cx="174.504" cy="217.557" r="3.20611" fill="#9BC1FA"/>
<circle cx="174.504" cy="233.13" r="3.20611" fill="#9BC1FA"/>
<circle cx="190.076" cy="139.694" r="3.20611" fill="#9BC1FA"/>
<circle cx="190.076" cy="155.267" r="3.20611" fill="#9BC1FA"/>
<circle cx="190.076" cy="170.84" r="3.20611" fill="#9BC1FA"/>
<circle cx="190.076" cy="186.412" r="3.20611" fill="#9BC1FA"/>
<circle cx="190.076" cy="201.984" r="3.20611" fill="#9BC1FA"/>
<circle cx="190.076" cy="217.557" r="3.20611" fill="#9BC1FA"/>
<circle cx="190.076" cy="233.13" r="3.20611" fill="#9BC1FA"/>
<circle cx="205.649" cy="139.694" r="3.20611" fill="#9BC1FA"/>
<circle cx="205.649" cy="155.267" r="3.20611" fill="#9BC1FA"/>
<circle cx="205.649" cy="170.84" r="3.20611" fill="#9BC1FA"/>
<circle cx="205.649" cy="186.412" r="3.20611" fill="#9BC1FA"/>
<circle cx="205.649" cy="201.984" r="3.20611" fill="#9BC1FA"/>
<circle cx="205.649" cy="217.557" r="3.20611" fill="#9BC1FA"/>
<circle cx="205.649" cy="233.13" r="3.20611" fill="#9BC1FA"/>
<circle cx="221.221" cy="139.694" r="3.20611" fill="#9BC1FA"/>
<circle cx="221.221" cy="155.267" r="3.20611" fill="#9BC1FA"/>
<circle cx="221.221" cy="170.84" r="3.20611" fill="#9BC1FA"/>
<circle cx="221.221" cy="186.412" r="3.20611" fill="#9BC1FA"/>
<circle cx="221.221" cy="201.984" r="3.20611" fill="#9BC1FA"/>
<circle cx="221.221" cy="217.557" r="3.20611" fill="#9BC1FA"/>
<circle cx="221.221" cy="233.13" r="3.20611" fill="#9BC1FA"/>
<circle cx="236.794" cy="139.694" r="3.20611" fill="#9BC1FA"/>
<circle cx="236.794" cy="155.267" r="3.20611" fill="#9BC1FA"/>
<circle cx="236.794" cy="170.84" r="3.20611" fill="#9BC1FA"/>
<circle cx="236.794" cy="186.412" r="3.20611" fill="#9BC1FA"/>
<circle cx="236.794" cy="201.984" r="3.20611" fill="#9BC1FA"/>
<circle cx="236.794" cy="217.557" r="3.20611" fill="#9BC1FA"/>
<circle cx="236.794" cy="233.13" r="3.20611" fill="#9BC1FA"/>
<circle cx="127.786" cy="15.1143" r="3.20611" fill="#9BC1FA"/>
<circle cx="127.786" cy="30.6866" r="3.20611" fill="#9BC1FA"/>
<circle cx="127.786" cy="46.2598" r="3.20611" fill="#9BC1FA"/>
<circle cx="127.786" cy="61.8321" r="3.20611" fill="#9BC1FA"/>
<circle cx="127.786" cy="77.4044" r="3.20611" fill="#9BC1FA"/>
<circle cx="127.786" cy="92.9766" r="3.20611" fill="#9BC1FA"/>
<circle cx="127.786" cy="108.55" r="3.20611" fill="#9BC1FA"/>
<circle cx="127.786" cy="124.122" r="3.20611" fill="#9BC1FA"/>
<circle cx="143.359" cy="15.1143" r="3.20611" fill="#9BC1FA"/>
<circle cx="143.359" cy="30.6866" r="3.20611" fill="#9BC1FA"/>
<circle cx="143.359" cy="46.2598" r="3.20611" fill="#9BC1FA"/>
<circle cx="143.359" cy="61.8321" r="3.20611" fill="#9BC1FA"/>
<circle cx="143.359" cy="77.4044" r="3.20611" fill="#9BC1FA"/>
<circle cx="143.359" cy="92.9766" r="3.20611" fill="#9BC1FA"/>
<circle cx="143.359" cy="108.55" r="3.20611" fill="#9BC1FA"/>
<circle cx="143.359" cy="124.122" r="3.20611" fill="#9BC1FA"/>
<circle cx="158.931" cy="15.1143" r="3.20611" fill="#9BC1FA"/>
<circle cx="158.931" cy="30.6866" r="3.20611" fill="#9BC1FA"/>
<circle cx="158.931" cy="46.2598" r="3.20611" fill="#9BC1FA"/>
<circle cx="158.931" cy="61.8321" r="3.20611" fill="#9BC1FA"/>
<circle cx="158.931" cy="77.4044" r="3.20611" fill="#9BC1FA"/>
<circle cx="158.931" cy="92.9766" r="3.20611" fill="#9BC1FA"/>
<circle cx="158.931" cy="108.55" r="3.20611" fill="#9BC1FA"/>
<circle cx="158.931" cy="124.122" r="3.20611" fill="#9BC1FA"/>
<circle cx="174.504" cy="15.1143" r="3.20611" fill="#9BC1FA"/>
<circle cx="174.504" cy="30.6866" r="3.20611" fill="#9BC1FA"/>
<circle cx="174.504" cy="46.2598" r="3.20611" fill="#9BC1FA"/>
<circle cx="174.504" cy="61.8321" r="3.20611" fill="#9BC1FA"/>
<circle cx="174.504" cy="77.4044" r="3.20611" fill="#9BC1FA"/>
<circle cx="174.504" cy="92.9766" r="3.20611" fill="#9BC1FA"/>
<circle cx="174.504" cy="108.55" r="3.20611" fill="#9BC1FA"/>
<circle cx="174.504" cy="124.122" r="3.20611" fill="#9BC1FA"/>
<circle cx="190.076" cy="15.1143" r="3.20611" fill="#9BC1FA"/>
<circle cx="190.076" cy="30.6866" r="3.20611" fill="#9BC1FA"/>
<circle cx="190.076" cy="46.2598" r="3.20611" fill="#9BC1FA"/>
<circle cx="190.076" cy="61.8321" r="3.20611" fill="#9BC1FA"/>
<circle cx="190.076" cy="77.4044" r="3.20611" fill="#9BC1FA"/>
<circle cx="190.076" cy="92.9766" r="3.20611" fill="#9BC1FA"/>
<circle cx="190.076" cy="108.55" r="3.20611" fill="#9BC1FA"/>
<circle cx="190.076" cy="124.122" r="3.20611" fill="#9BC1FA"/>
<circle cx="205.649" cy="15.1143" r="3.20611" fill="#9BC1FA"/>
<circle cx="205.649" cy="30.6866" r="3.20611" fill="#9BC1FA"/>
<circle cx="205.649" cy="46.2598" r="3.20611" fill="#9BC1FA"/>
<circle cx="205.649" cy="61.8321" r="3.20611" fill="#9BC1FA"/>
<circle cx="205.649" cy="77.4044" r="3.20611" fill="#9BC1FA"/>
<circle cx="205.649" cy="92.9766" r="3.20611" fill="#9BC1FA"/>
<circle cx="205.649" cy="108.55" r="3.20611" fill="#9BC1FA"/>
<circle cx="205.649" cy="124.122" r="3.20611" fill="#9BC1FA"/>
<circle cx="221.221" cy="15.1143" r="3.20611" fill="#9BC1FA"/>
<circle cx="221.221" cy="30.6866" r="3.20611" fill="#9BC1FA"/>
<circle cx="221.221" cy="46.2598" r="3.20611" fill="#9BC1FA"/>
<circle cx="221.221" cy="61.8321" r="3.20611" fill="#9BC1FA"/>
<circle cx="221.221" cy="77.4044" r="3.20611" fill="#9BC1FA"/>
<circle cx="221.221" cy="92.9766" r="3.20611" fill="#9BC1FA"/>
<circle cx="221.221" cy="108.55" r="3.20611" fill="#9BC1FA"/>
<circle cx="221.221" cy="124.122" r="3.20611" fill="#9BC1FA"/>
<circle cx="236.794" cy="15.1143" r="3.20611" fill="#9BC1FA"/>
<circle cx="236.794" cy="30.6866" r="3.20611" fill="#9BC1FA"/>
<circle cx="236.794" cy="46.2598" r="3.20611" fill="#9BC1FA"/>
<circle cx="236.794" cy="61.8321" r="3.20611" fill="#9BC1FA"/>
<circle cx="236.794" cy="77.4044" r="3.20611" fill="#9BC1FA"/>
<circle cx="236.794" cy="92.9766" r="3.20611" fill="#9BC1FA"/>
<circle cx="236.794" cy="108.55" r="3.20611" fill="#9BC1FA"/>
<circle cx="236.794" cy="124.122" r="3.20611" fill="#9BC1FA"/>
</g>
</svg>
