<svg width="407" height="340" viewBox="0 0 407 340" fill="none" xmlns="http://www.w3.org/2000/svg">
<mask id="mask0_2847_15999" style="mask-type:alpha" maskUnits="userSpaceOnUse" x="-60" y="79" width="387" height="387">
<circle cx="133.613" cy="272.613" r="192.767" transform="rotate(45 133.613 272.613)" fill="#C84C4C"/>
</mask>
<g mask="url(#mask0_2847_15999)">
<rect x="159.727" y="-26.1138" width="7.27421" height="459.394" transform="rotate(45 159.727 -26.1138)" fill="#F2A2A3"/>
<rect x="180.302" y="-5.53906" width="7.27421" height="459.394" transform="rotate(45 180.302 -5.53906)" fill="#F2A2A3"/>
<rect x="200.876" y="15.0352" width="7.27421" height="459.394" transform="rotate(45 200.876 15.0352)" fill="#F2A2A3"/>
<rect x="221.451" y="35.6099" width="7.27421" height="459.394" transform="rotate(45 221.451 35.6099)" fill="#F2A2A3"/>
<rect x="242.025" y="56.1846" width="7.27421" height="459.394" transform="rotate(45 242.025 56.1846)" fill="#F2A2A3"/>
<rect x="262.6" y="76.7593" width="7.27421" height="459.394" transform="rotate(45 262.6 76.7593)" fill="#F2A2A3"/>
<rect x="283.174" y="97.334" width="7.27421" height="459.394" transform="rotate(45 283.174 97.334)" fill="#F2A2A3"/>
<rect x="303.749" y="117.908" width="7.27421" height="459.394" transform="rotate(45 303.749 117.908)" fill="#F2A2A3"/>
<rect x="324.323" y="138.483" width="7.27421" height="459.394" transform="rotate(45 324.323 138.483)" fill="#F2A2A3"/>
<rect x="344.898" y="159.057" width="7.27421" height="459.394" transform="rotate(45 344.898 159.057)" fill="#F2A2A3"/>
<rect x="365.473" y="179.631" width="7.27421" height="459.394" transform="rotate(45 365.473 179.631)" fill="#F2A2A3"/>
<rect x="386.047" y="200.206" width="7.27421" height="459.394" transform="rotate(45 386.047 200.206)" fill="#F2A2A3"/>
<rect x="406.622" y="220.781" width="7.27421" height="459.394" transform="rotate(45 406.622 220.781)" fill="#F2A2A3"/>
<rect x="427.196" y="241.355" width="7.27421" height="459.394" transform="rotate(45 427.196 241.355)" fill="#F2A2A3"/>
</g>
</svg>
