<svg width="211" height="242" viewBox="0 0 211 242" fill="none" xmlns="http://www.w3.org/2000/svg">
<path fill-rule="evenodd" clip-rule="evenodd" d="M97.9059 203.072L24.43 240.191C21.8626 241.489 19.006 242.106 16.1324 241.985C13.2589 241.864 10.4642 241.009 8.01467 239.501C5.56518 237.992 3.54254 235.881 2.13955 233.369C0.736556 230.857 -2.73609e-05 228.027 7.62269e-10 225.149V21V11.4459V-8H19.4329H191.567H211V11.4216C211 11.4297 211 11.4378 211 11.4459L211 21L211 225.151C211 228.029 210.263 230.859 208.859 233.371C207.456 235.883 205.434 237.993 202.984 239.501C200.535 241.009 197.74 241.864 194.867 241.985C191.994 242.106 189.137 241.488 186.57 240.191L113.08 203.072C110.727 201.884 108.128 201.266 105.493 201.266C102.858 201.266 100.259 201.884 97.9059 203.072Z" fill="#F7E06D"/>
</svg>
