<svg width="21" height="19" viewBox="0 0 21 19" fill="none" xmlns="http://www.w3.org/2000/svg">
<path d="M9.38676 18.5C10.3525 18.5 11.1353 17.6942 11.1353 16.7C11.1353 15.7059 10.3525 14.9 9.38676 14.9C8.42105 14.9 7.63818 15.7059 7.63818 16.7C7.63818 17.6942 8.42105 18.5 9.38676 18.5Z" fill="#6DA6F7"/>
<path d="M15.2544 18.5C16.2202 18.5 17.003 17.6942 17.003 16.7C17.003 15.7059 16.2202 14.9 15.2544 14.9C14.2887 14.9 13.5059 15.7059 13.5059 16.7C13.5059 17.6942 14.2887 18.5 15.2544 18.5Z" fill="#6DA6F7"/>
<path d="M1.18784 1.70004H3.61847L6.43242 11.8406L6.21171 12.295C5.63057 13.4902 6.47419 14.9 7.77587 14.9H17.5855C17.9077 14.9 18.1684 14.6317 18.1684 14.3C18.1684 13.9684 17.9077 13.7 17.5855 13.7H7.77587C7.34304 13.7 7.06016 13.2309 7.25448 12.8317L7.41559 12.5H17.5855C17.8457 12.5 18.0745 12.3225 18.1462 12.0647L20.4776 3.66468C20.5277 3.48364 20.4924 3.28908 20.3826 3.13852C20.2722 2.98852 20.0997 2.90004 19.917 2.90004H5.16382L4.61853 0.93536C4.5468 0.67756 4.31801 0.5 4.05786 0.5H1.18784C0.865673 0.5 0.60498 0.76836 0.60498 1.1C0.60498 1.43164 0.865673 1.70004 1.18784 1.70004Z" fill="#6DA6F7"/>
</svg>
