<svg width="46" height="41" viewBox="0 0 46 41" fill="none" xmlns="http://www.w3.org/2000/svg">
<path d="M20.3757 40.3398C22.5848 40.3398 24.3756 38.5489 24.3756 36.3398C24.3756 34.1307 22.5848 32.3398 20.3757 32.3398C18.1666 32.3398 16.3757 34.1307 16.3757 36.3398C16.3757 38.5489 18.1666 40.3398 20.3757 40.3398Z" fill="white"/>
<path d="M33.7978 40.3398C36.0069 40.3398 37.7978 38.5489 37.7978 36.3398C37.7978 34.1307 36.0069 32.3398 33.7978 32.3398C31.5887 32.3398 29.7979 34.1307 29.7979 36.3398C29.7979 38.5489 31.5887 40.3398 33.7978 40.3398Z" fill="white"/>
<path d="M1.62042 3.00655H7.18059L13.6176 25.5406L13.1128 26.5504C11.7834 29.2064 13.7132 32.3394 16.6908 32.3394H39.1309C39.8678 32.3394 40.4642 31.743 40.4642 31.0061C40.4642 30.2691 39.8678 29.6728 39.1309 29.6728H16.6908C15.7007 29.6728 15.0536 28.6302 15.4981 27.7431L15.8667 27.0061H39.1309C39.7259 27.0061 40.2493 26.6117 40.4134 26.0387L45.7467 7.37234C45.8612 6.97004 45.7805 6.53769 45.5293 6.20312C45.2766 5.86979 44.8822 5.67317 44.4642 5.67317H10.7156L9.46828 1.30729C9.3042 0.734415 8.78083 0.339844 8.18573 0.339844H1.62042C0.883454 0.339844 0.287109 0.936189 0.287109 1.67315C0.287109 2.41012 0.883454 3.00655 1.62042 3.00655V3.00655Z" fill="white"/>
</svg>
