<svg width="32" height="32" viewBox="0 0 32 32" fill="none" xmlns="http://www.w3.org/2000/svg">
<path d="M27.1254 11.5508L15.2293 11.6971L18.7101 8.12966C20.3261 6.47336 20.2935 3.81632 18.6371 2.19561C16.9808 0.579556 14.3237 0.612236 12.7031 2.26859L2.14572 13.0888C1.1518 14.1547 0.676478 15.6851 1.09486 17.1065C1.20683 17.4921 1.37526 17.919 1.59853 18.2565C1.78377 18.534 1.99652 18.7738 2.21871 19.0229L13.2701 29.8058C14.1007 30.6161 15.1779 31.0131 16.25 30.9999C17.3222 30.9867 18.3939 30.5632 19.1996 29.7328C20.8156 28.0765 20.783 25.4195 19.1266 23.7987L15.3232 20.0878L27.2147 19.9415C29.5314 19.913 31.3869 18.0114 31.3584 15.6946C31.3299 13.3779 29.4422 11.5223 27.1254 11.5508Z" fill="#6DA6F7"/>
</svg>
