<svg width="44" height="30" viewBox="0 0 44 30" fill="none" xmlns="http://www.w3.org/2000/svg">
<path d="M3.70161 0C2.14231 0 0.87793 1.26438 0.87793 2.82368V27.1763C0.87793 28.7357 2.14231 30 3.70161 30C5.26091 30 6.52529 28.7357 6.52529 27.1763V2.82368C6.52529 1.26438 5.26091 0 3.70161 0Z" fill="#6DA6F7"/>
<path d="M39.7616 10.6861H27.8646L31.389 7.16173C33.0253 5.52543 33.0253 2.86819 31.389 1.22722C29.7526 -0.409075 27.0954 -0.409075 25.4545 1.22722L14.7649 11.9168C13.7579 12.9704 13.2638 14.4948 13.6647 15.9213C13.7719 16.3082 13.9351 16.7371 14.1542 17.0774C14.336 17.3571 14.5458 17.5996 14.7649 17.8513L25.6829 28.7693C26.5034 29.5898 27.5756 30 28.6478 30C29.7201 30 30.7969 29.5897 31.6128 28.7693C33.2491 27.133 33.2491 24.4757 31.6128 22.8347L27.8553 19.0773H39.7476C42.0646 19.0773 43.9433 17.1986 43.9433 14.8817C43.9433 12.5648 42.0786 10.6861 39.7616 10.6861Z" fill="#6DA6F7"/>
</svg>
