<svg width="243" height="79" viewBox="0 0 243 79" fill="none" xmlns="http://www.w3.org/2000/svg">
<path fill-rule="evenodd" clip-rule="evenodd" d="M19.849 19.6748C17.7468 21.8044 14.8231 23.1247 11.5904 23.1247C5.18918 23.1247 0 17.9481 0 11.5623C0 5.17664 5.18918 0 11.5904 0C17.0328 0 21.5991 3.74209 22.8449 8.78777V0.845703H60.6271L60.6309 23.1404H43.003V25.6189H19.849V19.6748Z" fill="#F7E06D"/>
<path fill-rule="evenodd" clip-rule="evenodd" d="M159.273 23.1247C163.675 23.1247 167.504 20.6762 169.466 17.07V22.2681H182.363L182.586 22.2009L182.561 22.2761H192.892V19.6758H194.14V22.2799L202.377 22.3323L202.383 22.3483H204.893L204.913 22.3484L204.913 22.3483H221.82V0.986328H214.584H209.622C205.556 0.986328 201.161 4.8142 201.15 8.8707L199.288 2.20096C199.184 1.83057 198.961 1.50433 198.654 1.27199C198.346 1.03965 197.971 0.913974 197.586 0.914134L191.006 0.841797C190.635 0.841876 190.273 0.958457 189.972 1.17504C189.67 1.39162 189.445 1.69724 189.327 2.04867L187.751 6.76069C187.667 6.67366 187.582 6.54828 187.499 6.37697C187.428 6.23655 187.374 6.08832 187.339 5.93534C187.222 5.30649 187.037 4.69236 186.785 4.10409C185.675 1.57233 184.595 0.974609 182.022 0.974609H169.466V6.05474C167.504 2.44844 163.675 0 159.273 0C154.779 0 150.882 2.5514 148.959 6.28136C148.975 6.10007 148.977 5.91707 148.965 5.73402C148.724 2.97383 146.293 0.917969 143.511 0.917969L134.13 0.98269V5.55128V9.70832L132.02 2.15156C131.914 1.77612 131.689 1.44538 131.377 1.20965C131.066 0.97393 130.686 0.846132 130.295 0.845703H123.235C122.859 0.845954 122.494 0.964163 122.189 1.18354C121.885 1.40292 121.658 1.71231 121.54 2.0678L120.464 5.2831C119.44 2.72745 116.879 0.914062 113.892 0.914062L108.423 0.986399H101.13V22.2798H111.816V15.4003L113.884 15.328C115.201 15.328 116.433 14.8935 117.488 14.1727L114.774 22.28H125.536V19.6759H126.78V22.28H137.642L137.597 22.1206L143.797 22.1353C146.557 22.1353 148.984 20.1051 149.247 17.3673C151.254 20.8102 154.993 23.1247 159.273 23.1247ZM194.323 8.12109L194.014 7.9155L194.143 7.37869L194.323 8.12109ZM126.956 8.12118L126.647 7.91559L126.776 7.37879L126.956 8.12118ZM174.718 5.1206H178.618C179.055 5.12012 179.481 5.25298 179.839 5.50132H174.714L174.718 5.1206ZM114.48 6.56389V9.07661C114.75 8.71318 114.896 8.27271 114.896 7.82025C114.896 7.36779 114.75 6.92732 114.48 6.56389ZM214.843 9.97123H211.351C211.101 9.98257 210.851 9.94316 210.616 9.85539C210.381 9.76761 210.167 9.63329 209.986 9.46054C209.805 9.28778 209.66 9.08018 209.562 8.85026C209.463 8.62035 209.412 8.3729 209.412 8.12285C209.412 7.8728 209.463 7.62536 209.562 7.39544C209.66 7.16553 209.805 6.95792 209.986 6.78517C210.167 6.61241 210.381 6.47809 210.616 6.39032C210.851 6.30254 211.101 6.26314 211.351 6.27448H214.843V9.97123Z" fill="#F7E06D"/>
<path d="M21.5012 26.8633V32.4103V37.9612V66.0466H35.183V37.9612H40.045V66.0466H53.7268V37.9612V32.4103V26.8633H21.5012Z" fill="#F7E06D"/>
<path d="M82.0024 8.82163C69.1183 8.0602 57.7646 23.0985 56.6426 42.3818C55.5205 61.665 65.0386 77.9026 77.9418 78.6526C90.845 79.4026 102.18 64.3757 103.298 45.0925C104.416 25.8092 94.8866 9.56783 82.0024 8.82163ZM87.5591 44.1749C87.1965 50.4377 83.5099 55.3147 79.3272 55.071C75.1444 54.8274 72.0493 49.5583 72.4119 43.2955C72.7744 37.0327 76.4649 32.1595 80.6476 32.3994C84.8304 32.6392 87.9102 37.916 87.5591 44.1749Z" fill="#F7E06D"/>
<path d="M125.582 54.3859C124.182 54.3852 122.807 54.0157 121.597 53.3148C120.386 52.614 119.382 51.6067 118.687 50.3947C117.992 49.1827 117.629 47.8091 117.637 46.4127C117.645 45.0163 118.022 43.6466 118.73 42.4422C119.439 41.2378 120.453 40.2414 121.671 39.5537C122.89 38.866 124.268 38.5114 125.668 38.5257C127.068 38.5401 128.439 38.9229 129.643 39.6355C130.847 40.348 131.841 41.3651 132.524 42.5837V28.1165C129.552 26.9965 126.351 26.6126 123.198 26.9977C120.044 27.3829 117.031 28.5257 114.417 30.3279C111.804 32.1302 109.667 34.5382 108.192 37.3452C106.716 40.1523 105.945 43.2746 105.945 46.4442C105.945 49.6138 106.716 52.7361 108.192 55.5432C109.667 58.3502 111.804 60.7582 114.417 62.5605C117.031 64.3627 120.044 65.5055 123.198 65.8907C126.351 66.2758 129.552 65.8919 132.524 64.7719V50.3047C131.837 51.5408 130.831 52.5712 129.61 53.2888C128.39 54.0064 126.999 54.3852 125.582 54.3859V54.3859Z" fill="#F7E06D"/>
<path d="M156.582 55.7904L169.951 27.0844L156.426 27.0234L152.132 41.148L147.843 27.0234L134.314 27.0844L143.172 56.4109L138.309 65.887H151.881L156.453 56.0683L156.666 56.0607L156.582 55.7904Z" fill="#F7E06D"/>
<path d="M201.18 58.2155V27.0234H172.458V51.8042C172.458 57.5987 167.821 58.2155 167.821 58.2155V77.4454H180.942V70.2956H190.327V77.1485H203.684V58.2155H201.18ZM189.533 56.8563H183.541C185.01 54.3931 184.686 39.8459 184.686 39.8459H189.533V56.8563Z" fill="#F7E06D"/>
<path d="M37.4846 15.5751V3.34277H26.2071V13.0738C26.2071 15.3581 24.3867 15.5904 24.3867 15.5904V23.14H29.5503V20.3341H33.2369V23.0295H38.4768V15.5751H37.4846ZM32.9049 15.0421H30.554C31.1303 14.0751 30.9967 8.36441 30.9967 8.36441H32.9049V15.0421Z" fill="#F86C6F"/>
<path d="M242.287 65.887L231.437 27.0234H218.37L205.367 65.887H219.488V61.1661H227.743V65.887H242.287ZM221.648 51.039L224.591 38.8828L227.529 51.039H221.648Z" fill="#F7E06D"/>
<path d="M134.184 19.7973L129.581 3.34277H124.048L118.537 19.8125H124.528V17.81H128.013V19.8087L134.184 19.7973ZM125.437 13.4965L126.685 8.34538L127.929 13.4965H125.437Z" fill="#F86C6F"/>
<path d="M11.5902 19.7979C16.1492 19.7979 19.845 16.111 19.845 11.563C19.845 7.015 16.1492 3.32812 11.5902 3.32812C7.03115 3.32812 3.33533 7.015 3.33533 11.563C3.33533 16.111 7.03115 19.7979 11.5902 19.7979Z" fill="#F86C6F"/>
<path d="M11.5903 15.3961C13.7128 15.3961 15.4334 13.6797 15.4334 11.5623C15.4334 9.44497 13.7128 7.72852 11.5903 7.72852C9.46781 7.72852 7.74719 9.44497 7.74719 11.5623C7.74719 13.6797 9.46781 15.3961 11.5903 15.3961Z" fill="#F7E06D"/>
<path d="M159.273 19.7979C163.832 19.7979 167.528 16.111 167.528 11.563C167.528 7.015 163.832 3.32812 159.273 3.32812C154.714 3.32812 151.018 7.015 151.018 11.563C151.018 16.111 154.714 19.7979 159.273 19.7979Z" fill="#F86C6F"/>
<path d="M159.273 15.3961C161.396 15.3961 163.116 13.6797 163.116 11.5623C163.116 9.44497 161.396 7.72852 159.273 7.72852C157.151 7.72852 155.43 9.44497 155.43 11.5623C155.43 13.6797 157.151 15.3961 159.273 15.3961Z" fill="#F7E06D"/>
<path d="M52.399 3.32812V8.93987H47.5637V3.32812H42.3085V19.7979H47.5637V14.1861H52.399V19.7979H57.658V14.1861V8.93987V3.32812H52.399Z" fill="#F86C6F"/>
<path d="M112.309 3.34277H104.004V19.8125H109.263V13.4965H112.316C113.667 13.4965 114.963 12.961 115.919 12.0078C116.874 11.0547 117.411 9.76189 117.411 8.41391C117.407 7.06691 116.868 5.7765 115.911 4.8258C114.954 3.87511 113.659 3.34176 112.309 3.34277ZM112.309 10.0434H109.694V6.8111H112.332C112.551 6.80047 112.77 6.8344 112.976 6.91082C113.182 6.98725 113.37 7.10457 113.529 7.25569C113.688 7.40681 113.815 7.58857 113.901 7.78995C113.988 7.99133 114.032 8.20814 114.032 8.42723C114.032 8.64632 113.988 8.86313 113.901 9.06452C113.815 9.2659 113.688 9.44766 113.529 9.59878C113.37 9.74989 113.182 9.86722 112.976 9.94365C112.77 10.0201 112.551 10.054 112.332 10.0434H112.309Z" fill="#F86C6F"/>
<path d="M216.461 5.50098H208.913V11.6686H216.461V5.50098Z" fill="#F7E06D"/>
<path d="M214.019 3.34296H210.16C208.776 3.33183 207.435 3.82152 206.384 4.72135C205.334 5.62117 204.647 6.87017 204.449 8.23702C204.251 9.60387 204.556 10.996 205.308 12.1555C206.06 13.315 207.208 14.1635 208.539 14.5436V14.5436L204.421 19.7975H209.954L214.019 14.7644V19.2531H219.656V3.34296H214.019ZM214.221 10.3405H211.504C211.121 10.3405 210.754 10.1889 210.484 9.91901C210.213 9.64913 210.061 9.28309 210.061 8.90141C210.061 8.51974 210.213 8.15369 210.484 7.88381C210.754 7.61393 211.121 7.46231 211.504 7.46231H214.221V10.3405Z" fill="#F86C6F"/>
<path d="M181.206 11.563C182.279 11.5305 183.297 11.0824 184.044 10.3138C184.791 9.54515 185.209 8.5164 185.209 7.44556C185.209 6.37473 184.791 5.34598 184.044 4.57736C183.297 3.80874 182.279 3.36068 181.206 3.32812H171.428V19.7979H181.206C182.3 19.7979 183.349 19.3643 184.123 18.5925C184.897 17.8207 185.331 16.7739 185.331 15.6823V15.6823C185.332 15.1416 185.225 14.606 185.018 14.1062C184.811 13.6065 184.507 13.1523 184.124 12.7698C183.741 12.3872 183.286 12.0837 182.785 11.8766C182.285 11.6696 181.748 11.563 181.206 11.563V11.563ZM180.244 14.8448C180.244 15.288 180.067 15.7132 179.753 16.0266C179.439 16.34 179.013 16.5161 178.569 16.5161H175.515V13.1734H178.569C179.013 13.1744 179.438 13.3508 179.752 13.6641C180.066 13.9773 180.243 14.4018 180.244 14.8448ZM178.569 9.89547H175.515V6.55278H178.569C179.013 6.55278 179.439 6.72887 179.753 7.04231C180.067 7.35575 180.244 7.78086 180.244 8.22413C180.244 8.6674 180.067 9.0925 179.753 9.40594C179.439 9.71938 179.013 9.89547 178.569 9.89547Z" fill="#F86C6F"/>
<path d="M201.543 19.7979L196.964 3.32812H191.43L185.919 19.7979H191.907V17.8106H195.406V19.8093L201.543 19.7979ZM192.8 13.497L194.036 8.34596L195.284 13.497H192.8Z" fill="#F86C6F"/>
<path d="M143.847 11.1821C144.619 10.8259 145.261 10.2402 145.686 9.50546C146.111 8.7707 146.298 7.92279 146.221 7.07799C146.104 6.04068 145.604 5.08394 144.819 4.3937C144.034 3.70346 143.02 3.32902 141.973 3.34316H135.646V6.91047H139.393C139.691 6.90359 139.979 7.01004 140.201 7.20812C140.422 7.40619 140.559 7.68098 140.584 7.97648C140.591 8.12726 140.567 8.27783 140.514 8.41915C140.461 8.56046 140.379 8.68959 140.275 8.79877C140.17 8.90795 140.045 8.99493 139.906 9.05448C139.767 9.11402 139.617 9.14492 139.466 9.14528H138.062V12.8611H139.393C139.691 12.8542 139.979 12.9606 140.201 13.1587C140.422 13.3568 140.559 13.6316 140.584 13.9271C140.591 14.078 140.568 14.2288 140.515 14.3704C140.462 14.5119 140.381 14.6412 140.276 14.7505C140.172 14.8598 140.046 14.9468 139.907 15.0062C139.767 15.0655 139.617 15.096 139.466 15.0959H135.646V19.7787H141.981C143.03 19.7969 144.048 19.4224 144.834 18.729C145.621 18.0355 146.118 17.0735 146.229 16.0324C146.305 15.1872 146.118 14.3389 145.694 13.6036C145.269 12.8683 144.626 12.2819 143.855 11.9245C143.787 11.8889 143.731 11.8358 143.691 11.7709C143.652 11.7059 143.631 11.6316 143.63 11.5556C143.629 11.4796 143.649 11.4048 143.687 11.3391C143.725 11.2733 143.781 11.2191 143.847 11.1821V11.1821Z" fill="#F86C6F"/>
</svg>
