<svg width="56" height="56" viewBox="0 0 56 56" fill="none" xmlns="http://www.w3.org/2000/svg">
<path d="M37.397 6.40705C28.8543 -2.13568 14.9503 -2.13568 6.40761 6.40705C-2.13327 14.9516 -2.13327 28.8537 6.40761 37.3983C14.0151 45.004 25.8635 45.8188 34.4007 39.8798C34.5803 40.7298 34.9914 41.541 35.6525 42.2021L48.0935 54.643C49.9065 56.4523 52.8362 56.4523 54.6399 54.643C56.451 52.8319 56.451 49.9022 54.6399 48.0966L42.1989 35.652C41.5415 34.9964 40.7286 34.5834 39.8785 34.4038C45.8212 25.8648 45.0064 14.0183 37.397 6.40705ZM33.4692 33.4705C27.0913 39.8483 16.7115 39.8483 10.3355 33.4705C3.96128 27.0926 3.96128 16.7146 10.3355 10.3367C16.7115 3.96071 27.0913 3.96071 33.4692 10.3367C39.8471 16.7146 39.8471 27.0926 33.4692 33.4705Z" fill="#6DA6F7"/>
<path d="M14.7586 30.5636C14.6553 30.8121 14.5002 31.0439 14.2935 31.2436C13.4671 32.0407 12.1272 32.0174 11.301 31.1911C6.10752 25.9975 6.10861 17.6953 11.3033 12.684C12.1297 11.8869 13.4696 11.9102 14.2959 12.7365C15.1221 13.563 15.1219 14.8788 14.2954 15.6764C10.7513 19.0955 10.7504 24.7604 14.2938 28.3036C14.9135 28.9234 15.0684 29.8185 14.7586 30.5636Z" fill="#6DA6F7"/>
</svg>
