<svg width="223" height="69" viewBox="0 0 223 69" fill="none" xmlns="http://www.w3.org/2000/svg">
<path fill-rule="evenodd" clip-rule="evenodd" d="M223 41.863V0.936968C223 0.0119966 221.612 -0.348242 221.084 0.411509C216.88 6.46792 208.033 14.7261 195 14.7261H27.125C12.1443 14.7261 0 26.8757 0 41.863C0 56.8504 12.1443 69 27.125 69H195.875C210.71 69 222.763 57.0862 222.997 42.3007H223V41.863Z" fill="white"/>
<path d="M32.18 46.8223H29.795L26.045 41.9023V46.8223H23.975V36.3223H26.045V40.9573L29.645 36.3223H32.03L28.145 41.4223L32.18 46.8223ZM38.8297 45.8923C38.0597 46.6523 37.1197 47.0323 36.0097 47.0323C34.8997 47.0323 33.9597 46.6523 33.1897 45.8923C32.4297 45.1223 32.0497 44.1823 32.0497 43.0723C32.0497 41.9623 32.4297 41.0273 33.1897 40.2673C33.9597 39.4973 34.8997 39.1123 36.0097 39.1123C37.1197 39.1123 38.0597 39.4973 38.8297 40.2673C39.5997 41.0273 39.9847 41.9623 39.9847 43.0723C39.9847 44.1823 39.5997 45.1223 38.8297 45.8923ZM34.5547 44.5573C34.9447 44.9473 35.4297 45.1423 36.0097 45.1423C36.5897 45.1423 37.0747 44.9473 37.4647 44.5573C37.8547 44.1673 38.0497 43.6723 38.0497 43.0723C38.0497 42.4723 37.8547 41.9773 37.4647 41.5873C37.0747 41.1973 36.5897 41.0023 36.0097 41.0023C35.4297 41.0023 34.9447 41.1973 34.5547 41.5873C34.1747 41.9773 33.9847 42.4723 33.9847 43.0723C33.9847 43.6723 34.1747 44.1673 34.5547 44.5573ZM46.2659 39.3223H48.2009V46.8223H46.2659V43.9723H43.2809V46.8223H41.3459V39.3223H43.2809V42.1573H46.2659V39.3223ZM55.8839 39.3223V41.1823H53.5439V46.8223H51.6089V41.1823H49.2389V39.3223H55.8839ZM62.3243 39.3223H64.2593V46.8223H62.3243V45.9373C61.7443 46.6673 60.9293 47.0323 59.8793 47.0323C58.8793 47.0323 58.0193 46.6523 57.2993 45.8923C56.5893 45.1223 56.2343 44.1823 56.2343 43.0723C56.2343 41.9623 56.5893 41.0273 57.2993 40.2673C58.0193 39.4973 58.8793 39.1123 59.8793 39.1123C60.9293 39.1123 61.7443 39.4773 62.3243 40.2073V39.3223ZM58.7543 44.6023C59.1443 44.9923 59.6393 45.1873 60.2393 45.1873C60.8393 45.1873 61.3343 44.9923 61.7243 44.6023C62.1243 44.2023 62.3243 43.6923 62.3243 43.0723C62.3243 42.4523 62.1243 41.9473 61.7243 41.5573C61.3343 41.1573 60.8393 40.9573 60.2393 40.9573C59.6393 40.9573 59.1443 41.1573 58.7543 41.5573C58.3643 41.9473 58.1693 42.4523 58.1693 43.0723C58.1693 43.6923 58.3643 44.2023 58.7543 44.6023ZM72.9289 46.8223H70.6789L67.9489 43.4173V46.8223H66.0139V39.3223H67.9489V42.6223L70.5289 39.3223H72.8389L69.8239 43.0273L72.9289 46.8223ZM79.8048 39.3223V41.1823H77.4648V46.8223H75.5298V41.1823H73.1598V39.3223H79.8048ZM85.7581 39.3223H87.6931V46.8223H85.7581V43.9723H82.7731V46.8223H80.8381V39.3223H82.7731V42.1573H85.7581V39.3223ZM95.1661 39.3223H97.1011V46.8223H95.1661V45.9373C94.5861 46.6673 93.7711 47.0323 92.7211 47.0323C91.7211 47.0323 90.8611 46.6523 90.1411 45.8923C89.4311 45.1223 89.0761 44.1823 89.0761 43.0723C89.0761 41.9623 89.4311 41.0273 90.1411 40.2673C90.8611 39.4973 91.7211 39.1123 92.7211 39.1123C93.7711 39.1123 94.5861 39.4773 95.1661 40.2073V39.3223ZM91.5961 44.6023C91.9861 44.9923 92.4811 45.1873 93.0811 45.1873C93.6811 45.1873 94.1761 44.9923 94.5661 44.6023C94.9661 44.2023 95.1661 43.6923 95.1661 43.0723C95.1661 42.4523 94.9661 41.9473 94.5661 41.5573C94.1761 41.1573 93.6811 40.9573 93.0811 40.9573C92.4811 40.9573 91.9861 41.1573 91.5961 41.5573C91.2061 41.9473 91.0111 42.4523 91.0111 43.0723C91.0111 43.6923 91.2061 44.2023 91.5961 44.6023ZM104.871 39.3223V46.8223H102.981V44.4823H102.306L100.581 46.8223H98.3457L100.221 44.2573C99.7407 44.0573 99.3557 43.7423 99.0657 43.3123C98.7857 42.8723 98.6457 42.4023 98.6457 41.9023C98.6457 41.2023 98.8957 40.5973 99.3957 40.0873C99.8957 39.5773 100.551 39.3223 101.361 39.3223H104.871ZM101.511 41.0473C101.231 41.0473 100.996 41.1323 100.806 41.3023C100.626 41.4623 100.536 41.6823 100.536 41.9623C100.536 42.2323 100.626 42.4473 100.806 42.6073C100.996 42.7673 101.231 42.8473 101.511 42.8473H102.981V41.0473H101.511ZM115.799 39.3223H117.239V46.8223H115.349V42.5623L111.824 46.8223H110.384V39.3223H112.274V43.5823L115.799 39.3223ZM123.932 39.3223H125.867V46.8223H123.932V43.9723H120.947V46.8223H119.012V39.3223H120.947V42.1573H123.932V39.3223ZM135.56 40.5073C136.22 41.2173 136.55 42.0723 136.55 43.0723C136.55 44.0723 136.22 44.9273 135.56 45.6373C134.9 46.3473 133.995 46.7823 132.845 46.9423V49.8223H130.955V46.9423C129.805 46.7823 128.9 46.3473 128.24 45.6373C127.58 44.9273 127.25 44.0723 127.25 43.0723C127.25 42.0723 127.58 41.2173 128.24 40.5073C128.9 39.7973 129.805 39.3623 130.955 39.2023V36.3223H132.845V39.2023C133.995 39.3623 134.9 39.7973 135.56 40.5073ZM129.155 43.0723C129.155 43.5723 129.31 44.0023 129.62 44.3623C129.93 44.7223 130.375 44.9673 130.955 45.0973V41.0473C130.375 41.1773 129.93 41.4223 129.62 41.7823C129.31 42.1323 129.155 42.5623 129.155 43.0723ZM132.845 45.0823C133.425 44.9523 133.865 44.7123 134.165 44.3623C134.475 44.0023 134.63 43.5723 134.63 43.0723C134.63 42.5623 134.475 42.1323 134.165 41.7823C133.865 41.4223 133.425 41.1773 132.845 41.0473V45.0823ZM144.298 45.8923C143.528 46.6523 142.588 47.0323 141.478 47.0323C140.368 47.0323 139.428 46.6523 138.658 45.8923C137.898 45.1223 137.518 44.1823 137.518 43.0723C137.518 41.9623 137.898 41.0273 138.658 40.2673C139.428 39.4973 140.368 39.1123 141.478 39.1123C142.588 39.1123 143.528 39.4973 144.298 40.2673C145.068 41.0273 145.453 41.9623 145.453 43.0723C145.453 44.1823 145.068 45.1223 144.298 45.8923ZM140.023 44.5573C140.413 44.9473 140.898 45.1423 141.478 45.1423C142.058 45.1423 142.543 44.9473 142.933 44.5573C143.323 44.1673 143.518 43.6723 143.518 43.0723C143.518 42.4723 143.323 41.9773 142.933 41.5873C142.543 41.1973 142.058 41.0023 141.478 41.0023C140.898 41.0023 140.413 41.1973 140.023 41.5873C139.643 41.9773 139.453 42.4723 139.453 43.0723C139.453 43.6723 139.643 44.1673 140.023 44.5573ZM151.18 39.1123C152.19 39.1123 153.05 39.4973 153.76 40.2673C154.48 41.0273 154.84 41.9623 154.84 43.0723C154.84 44.1823 154.48 45.1223 153.76 45.8923C153.05 46.6523 152.19 47.0323 151.18 47.0323C150.13 47.0323 149.32 46.6673 148.75 45.9373V49.8223H146.815V39.3223H148.75V40.2073C149.32 39.4773 150.13 39.1123 151.18 39.1123ZM149.335 44.6023C149.725 44.9923 150.22 45.1873 150.82 45.1873C151.42 45.1873 151.915 44.9923 152.305 44.6023C152.705 44.2023 152.905 43.6923 152.905 43.0723C152.905 42.4523 152.705 41.9473 152.305 41.5573C151.915 41.1573 151.42 40.9573 150.82 40.9573C150.22 40.9573 149.725 41.1573 149.335 41.5573C148.945 41.9473 148.75 42.4523 148.75 43.0723C148.75 43.6923 148.945 44.2023 149.335 44.6023ZM164.004 39.3223V46.8223H162.129V42.4423L160.224 45.4423H159.984L158.064 42.4123V46.8223H156.204V39.3223H158.109L160.104 42.4723L162.099 39.3223H164.004ZM171.47 39.3223H173.405V46.8223H171.47V45.9373C170.89 46.6673 170.075 47.0323 169.025 47.0323C168.025 47.0323 167.165 46.6523 166.445 45.8923C165.735 45.1223 165.38 44.1823 165.38 43.0723C165.38 41.9623 165.735 41.0273 166.445 40.2673C167.165 39.4973 168.025 39.1123 169.025 39.1123C170.075 39.1123 170.89 39.4773 171.47 40.2073V39.3223ZM167.9 44.6023C168.29 44.9923 168.785 45.1873 169.385 45.1873C169.985 45.1873 170.48 44.9923 170.87 44.6023C171.27 44.2023 171.47 43.6923 171.47 43.0723C171.47 42.4523 171.27 41.9473 170.87 41.5573C170.48 41.1573 169.985 40.9573 169.385 40.9573C168.785 40.9573 168.29 41.1573 167.9 41.5573C167.51 41.9473 167.315 42.4523 167.315 43.0723C167.315 43.6923 167.51 44.2023 167.9 44.6023ZM181.759 45.0073H183.019V48.8323H181.129V46.8223H175.159V39.3223H177.094V45.0073H179.824V39.3223H181.759V45.0073ZM189.656 39.3223H191.096V46.8223H189.206V42.5623L185.681 46.8223H184.241V39.3223H186.131V43.5823L189.656 39.3223ZM198.884 39.3223V46.8223H196.994V44.4823H196.319L194.594 46.8223H192.359L194.234 44.2573C193.754 44.0573 193.369 43.7423 193.079 43.3123C192.799 42.8723 192.659 42.4023 192.659 41.9023C192.659 41.2023 192.909 40.5973 193.409 40.0873C193.909 39.5773 194.564 39.3223 195.374 39.3223H198.884ZM195.524 41.0473C195.244 41.0473 195.009 41.1323 194.819 41.3023C194.639 41.4623 194.549 41.6823 194.549 41.9623C194.549 42.2323 194.639 42.4473 194.819 42.6073C195.009 42.7673 195.244 42.8473 195.524 42.8473H196.994V41.0473H195.524Z" fill="#6DA6F7"/>
</svg>
