<svg width="106" height="69" viewBox="0 0 106 69" fill="none" xmlns="http://www.w3.org/2000/svg">
<path fill-rule="evenodd" clip-rule="evenodd" d="M106 41.863V0.936968C106 0.0119966 104.612 -0.348242 104.084 0.411509C99.8805 6.46792 91.0332 14.7261 78 14.7261H27.125C12.1443 14.7261 0 26.8757 0 41.863C0 56.8504 12.1443 69 27.125 69H78.875C93.7096 69 105.763 57.0862 105.997 42.3007H106V41.863Z" fill="white"/>
<path d="M32.18 46.8223H29.795L26.045 41.9023V46.8223H23.975V36.3223H26.045V40.9573L29.645 36.3223H32.03L28.145 41.4223L32.18 46.8223ZM38.8297 45.8923C38.0597 46.6523 37.1197 47.0323 36.0097 47.0323C34.8997 47.0323 33.9597 46.6523 33.1897 45.8923C32.4297 45.1223 32.0497 44.1823 32.0497 43.0723C32.0497 41.9623 32.4297 41.0273 33.1897 40.2673C33.9597 39.4973 34.8997 39.1123 36.0097 39.1123C37.1197 39.1123 38.0597 39.4973 38.8297 40.2673C39.5997 41.0273 39.9847 41.9623 39.9847 43.0723C39.9847 44.1823 39.5997 45.1223 38.8297 45.8923ZM34.5547 44.5573C34.9447 44.9473 35.4297 45.1423 36.0097 45.1423C36.5897 45.1423 37.0747 44.9473 37.4647 44.5573C37.8547 44.1673 38.0497 43.6723 38.0497 43.0723C38.0497 42.4723 37.8547 41.9773 37.4647 41.5873C37.0747 41.1973 36.5897 41.0023 36.0097 41.0023C35.4297 41.0023 34.9447 41.1973 34.5547 41.5873C34.1747 41.9773 33.9847 42.4723 33.9847 43.0723C33.9847 43.6723 34.1747 44.1673 34.5547 44.5573ZM45.7109 39.1123C46.7209 39.1123 47.5809 39.4973 48.2909 40.2673C49.0109 41.0273 49.3709 41.9623 49.3709 43.0723C49.3709 44.1823 49.0109 45.1223 48.2909 45.8923C47.5809 46.6523 46.7209 47.0323 45.7109 47.0323C44.6609 47.0323 43.8509 46.6673 43.2809 45.9373V49.8223H41.3459V39.3223H43.2809V40.2073C43.8509 39.4773 44.6609 39.1123 45.7109 39.1123ZM43.8659 44.6023C44.2559 44.9923 44.7509 45.1873 45.3509 45.1873C45.9509 45.1873 46.4459 44.9923 46.8359 44.6023C47.2359 44.2023 47.4359 43.6923 47.4359 43.0723C47.4359 42.4523 47.2359 41.9473 46.8359 41.5573C46.4459 41.1573 45.9509 40.9573 45.3509 40.9573C44.7509 40.9573 44.2559 41.1573 43.8659 41.5573C43.4759 41.9473 43.2809 42.4523 43.2809 43.0723C43.2809 43.6923 43.4759 44.2023 43.8659 44.6023ZM54.8376 42.9973C55.5976 43.3673 55.9776 43.9623 55.9776 44.7823C55.9776 45.4223 55.7126 45.9573 55.1826 46.3873C54.6526 46.8173 53.9076 47.0323 52.9476 47.0323C51.4276 47.0323 50.3926 46.4323 49.8426 45.2323L51.4176 44.3023C51.6576 44.9823 52.1726 45.3223 52.9626 45.3223C53.3226 45.3223 53.5976 45.2523 53.7876 45.1123C53.9876 44.9723 54.0876 44.7823 54.0876 44.5423C54.0876 44.0823 53.7926 43.8523 53.2026 43.8523H52.1376V42.2023H52.9476C53.5276 42.2023 53.8176 41.9723 53.8176 41.5123C53.8176 41.2923 53.7326 41.1173 53.5626 40.9873C53.3926 40.8573 53.1676 40.7923 52.8876 40.7923C52.2376 40.7923 51.7726 41.1073 51.4926 41.7373L49.9326 40.8373C50.5026 39.6873 51.4776 39.1123 52.8576 39.1123C53.7176 39.1123 54.3976 39.3323 54.8976 39.7723C55.4076 40.2023 55.6626 40.7273 55.6626 41.3473C55.6626 42.0773 55.3876 42.6273 54.8376 42.9973ZM62.6105 39.3223H64.0505V46.8223H62.1605V42.5623L58.6355 46.8223H57.1955V39.3223H59.0855V43.5823L62.6105 39.3223ZM70.7435 39.3223H72.6785V46.8223H70.7435V43.9723H67.7585V46.8223H65.8235V39.3223H67.7585V42.1573H70.7435V39.3223ZM80.1514 39.3223H82.0864V46.8223H80.1514V45.9373C79.5714 46.6673 78.7564 47.0323 77.7064 47.0323C76.7064 47.0323 75.8464 46.6523 75.1264 45.8923C74.4164 45.1223 74.0614 44.1823 74.0614 43.0723C74.0614 41.9623 74.4164 41.0273 75.1264 40.2673C75.8464 39.4973 76.7064 39.1123 77.7064 39.1123C78.7564 39.1123 79.5714 39.4773 80.1514 40.2073V39.3223ZM76.5814 44.6023C76.9714 44.9923 77.4664 45.1873 78.0664 45.1873C78.6664 45.1873 79.1614 44.9923 79.5514 44.6023C79.9514 44.2023 80.1514 43.6923 80.1514 43.0723C80.1514 42.4523 79.9514 41.9473 79.5514 41.5573C79.1614 41.1573 78.6664 40.9573 78.0664 40.9573C77.4664 40.9573 76.9714 41.1573 76.5814 41.5573C76.1914 41.9473 75.9964 42.4523 75.9964 43.0723C75.9964 43.6923 76.1914 44.2023 76.5814 44.6023Z" fill="#6DA6F7"/>
</svg>
