<svg width="332" height="228" viewBox="0 0 332 228" fill="none" xmlns="http://www.w3.org/2000/svg">
<g clip-path="url(#clip0_2895_5264)">
<path d="M265.276 109.888H64.4876C57.1941 109.888 51.2993 97.444 51.2993 104.685V133.101C51.3005 137.848 52.2162 142.55 53.9969 146.953L83.2543 218.98C84.2242 221.42 85.9077 223.513 88.0867 224.99C90.2658 226.467 92.8401 227.26 95.4767 227.265H234.27C236.909 227.261 239.486 226.469 241.668 224.992C243.85 223.515 245.536 221.421 246.509 218.98L275.75 146.953C277.544 142.553 278.466 137.85 278.464 133.101V104.685C278.464 97.444 272.553 109.888 265.276 109.888ZM115.792 215.12C114.661 215.461 113.441 215.342 112.399 214.789C111.356 214.236 110.576 213.294 110.23 212.17L88.1333 140.276C87.8421 139.167 87.9926 137.99 88.5534 136.99C89.1142 135.989 90.0419 135.243 91.1426 134.907C92.2432 134.571 93.4318 134.672 94.4598 135.188C95.4878 135.703 96.2757 136.594 96.659 137.674L118.756 209.585C118.928 210.142 118.988 210.728 118.932 211.308C118.876 211.888 118.705 212.451 118.43 212.965C118.154 213.48 117.779 213.935 117.327 214.304C116.874 214.674 116.353 214.951 115.792 215.12V215.12ZM147.597 212.518C147.634 213.123 147.547 213.729 147.34 214.299C147.133 214.869 146.811 215.39 146.393 215.832C145.976 216.273 145.472 216.625 144.913 216.865C144.354 217.106 143.752 217.23 143.143 217.23C142.534 217.23 141.931 217.106 141.372 216.865C140.813 216.625 140.309 216.273 139.892 215.832C139.475 215.39 139.153 214.869 138.946 214.299C138.739 213.729 138.651 213.123 138.688 212.518V137.326C138.758 136.198 139.257 135.138 140.085 134.363C140.913 133.588 142.006 133.157 143.143 133.157C144.279 133.157 145.373 133.588 146.2 134.363C147.028 135.138 147.528 136.198 147.597 137.326V212.518ZM187.295 212.518C187.332 213.123 187.245 213.729 187.038 214.299C186.831 214.869 186.509 215.39 186.091 215.832C185.674 216.273 185.17 216.625 184.611 216.865C184.052 217.106 183.45 217.23 182.841 217.23C182.232 217.23 181.629 217.106 181.07 216.865C180.511 216.625 180.008 216.273 179.59 215.832C179.173 215.39 178.851 214.869 178.644 214.299C178.437 213.729 178.349 213.123 178.386 212.518V137.326C178.456 136.198 178.955 135.138 179.783 134.363C180.611 133.588 181.704 133.157 182.841 133.157C183.977 133.157 185.071 133.588 185.899 134.363C186.726 135.138 187.226 136.198 187.295 137.326V212.518ZM237.85 140.276L215.753 212.17C215.583 212.726 215.304 213.243 214.932 213.692C214.561 214.141 214.104 214.512 213.589 214.785C213.073 215.058 212.508 215.228 211.927 215.284C211.345 215.34 210.759 215.281 210.2 215.111C209.641 214.942 209.121 214.664 208.671 214.294C208.22 213.925 207.846 213.471 207.572 212.957C207.297 212.444 207.127 211.882 207.071 211.304C207.015 210.725 207.074 210.141 207.244 209.585L229.325 137.674C229.708 136.594 230.496 135.703 231.524 135.188C232.552 134.672 233.74 134.571 234.841 134.907C235.942 135.243 236.869 135.989 237.43 136.99C237.991 137.99 238.141 139.167 237.85 140.276V140.276Z" fill="#F86C6F"/>
<path d="M5.22238 30.2179L3.77172 31.5854C1.68866 33.5489 1.59968 36.8209 3.57298 38.8937L75.6051 114.556C77.5784 116.628 80.8668 116.717 82.9498 114.753L84.4005 113.386C86.4835 111.422 86.5725 108.15 84.5992 106.078L12.5671 30.4157C10.5938 28.343 7.30545 28.2544 5.22238 30.2179Z" fill="#F86C6F"/>
<path d="M245.946 113.38L247.397 114.747C249.48 116.711 252.768 116.622 254.741 114.55L326.774 38.8878C328.747 36.815 328.658 33.543 326.575 31.5795L325.124 30.212C323.041 28.2485 319.753 28.3371 317.779 30.4098L245.747 106.072C243.774 108.144 243.863 111.417 245.946 113.38Z" fill="#F86C6F"/>
<path d="M88.4163 141.171L88.1332 140.276C87.8421 139.167 87.9926 137.99 88.5534 136.99C89.1142 135.989 90.0419 135.243 91.1426 134.907C92.2432 134.571 93.4317 134.672 94.4598 135.188C95.4878 135.703 96.2757 136.594 96.659 137.674L97.7247 141.171H138.688V137.326C138.758 136.198 139.257 135.138 140.085 134.363C140.913 133.588 142.006 133.157 143.143 133.157C144.279 133.157 145.373 133.588 146.2 134.363C147.028 135.138 147.528 136.198 147.597 137.326V141.171H178.386V137.326C178.456 136.198 178.955 135.138 179.783 134.363C180.611 133.588 181.704 133.157 182.841 133.157C183.977 133.157 185.071 133.588 185.899 134.363C186.726 135.138 187.226 136.198 187.295 137.326V141.171H228.259L229.325 137.674C229.708 136.594 230.496 135.703 231.524 135.188C232.552 134.672 233.74 134.571 234.841 134.907C235.942 135.243 236.869 135.989 237.43 136.99C237.991 137.99 238.141 139.167 237.85 140.276L237.584 141.171H277.548C278.158 138.523 278.471 135.817 278.481 133.101V104.685C278.481 97.444 272.569 109.888 265.293 109.888H64.4876C57.1941 109.888 51.2993 97.444 51.2993 104.685V133.101C51.3095 135.817 51.6223 138.523 52.2318 141.171H88.4163Z" fill="#DD6268"/>
<path d="M280.129 91.5615H49.6175C46.2791 91.5615 43.5728 94.2544 43.5728 97.5762V122.198C43.5728 125.52 46.2791 128.213 49.6175 128.213H280.129C283.468 128.213 286.174 125.52 286.174 122.198V97.5762C286.174 94.2544 283.468 91.5615 280.129 91.5615Z" fill="#F7E06D"/>
<path d="M165.348 0.927734H163.749C161.45 0.927734 159.586 2.78232 159.586 5.07007V30.3549C159.586 32.6426 161.45 34.4972 163.749 34.4972H165.348C167.647 34.4972 169.511 32.6426 169.511 30.3549V5.07007C169.511 2.78232 167.647 0.927734 165.348 0.927734Z" fill="#6DA6F7"/>
<path d="M93.6282 25.0262L92.4978 26.151C90.8721 27.7687 90.8721 30.3915 92.4978 32.0092L110.466 49.8882C112.092 51.5059 114.728 51.5059 116.353 49.8882L117.484 48.7635C119.109 47.1458 119.109 44.523 117.484 42.9053L99.5155 25.0262C97.8898 23.4086 95.2539 23.4086 93.6282 25.0262Z" fill="#6DA6F7"/>
<path d="M236.599 26.1495L235.468 25.0248C233.843 23.4071 231.207 23.4071 229.581 25.0248L211.613 42.9038C209.987 44.5215 209.987 47.1443 211.613 48.762L212.743 49.8867C214.369 51.5044 217.005 51.5044 218.63 49.8867L236.599 32.0077C238.224 30.39 238.224 27.7672 236.599 26.1495Z" fill="#6DA6F7"/>
</g>
<defs>
<clipPath id="clip0_2895_5264">
<rect width="332" height="227" fill="white" transform="translate(0 0.644531)"/>
</clipPath>
</defs>
</svg>
