<svg width="200" height="200" viewBox="0 0 200 200" fill="none" xmlns="http://www.w3.org/2000/svg">
<path d="M159.93 95.76H39.3497C34.9697 95.76 31.4297 88.25 31.4297 92.62V109.77C31.4304 112.635 31.9803 115.472 33.0497 118.13L50.6197 161.6C51.2022 163.072 52.2131 164.336 53.5217 165.227C54.8303 166.119 56.3763 166.597 57.9597 166.6H141.31C142.894 166.598 144.442 166.12 145.752 165.228C147.063 164.337 148.075 163.073 148.66 161.6L166.22 118.13C167.297 115.475 167.851 112.636 167.85 109.77V92.62C167.85 88.25 164.3 95.76 159.93 95.76ZM70.1597 159.27C69.4807 159.476 68.7479 159.404 68.1218 159.07C67.4957 158.737 67.0274 158.168 66.8197 157.49L53.5497 114.1C53.3748 113.431 53.4652 112.721 53.802 112.117C54.1388 111.513 54.6959 111.063 55.3569 110.86C56.0179 110.657 56.7316 110.718 57.349 111.029C57.9663 111.34 58.4395 111.878 58.6697 112.53L71.9397 155.93C72.043 156.266 72.0788 156.619 72.0452 156.969C72.0115 157.32 71.9091 157.66 71.7437 157.97C71.5783 158.28 71.3532 158.555 71.0814 158.778C70.8096 159.001 70.4963 159.168 70.1597 159.27ZM89.2597 157.7C89.282 158.065 89.2294 158.431 89.1051 158.775C88.9807 159.119 88.7873 159.434 88.5367 159.7C88.2861 159.966 87.9837 160.179 87.648 160.324C87.3123 160.469 86.9504 160.544 86.5847 160.544C86.219 160.544 85.8571 160.469 85.5214 160.324C85.1857 160.179 84.8832 159.966 84.6326 159.7C84.3821 159.434 84.1886 159.119 84.0643 158.775C83.94 158.431 83.8874 158.065 83.9097 157.7V112.32C83.9514 111.639 84.2513 110.999 84.7484 110.532C85.2455 110.064 85.9022 109.804 86.5847 109.804C87.2671 109.804 87.9239 110.064 88.421 110.532C88.918 110.999 89.218 111.639 89.2597 112.32V157.7ZM113.1 157.7C113.122 158.065 113.069 158.431 112.945 158.775C112.821 159.119 112.627 159.434 112.377 159.7C112.126 159.966 111.824 160.179 111.488 160.324C111.152 160.469 110.79 160.544 110.425 160.544C110.059 160.544 109.697 160.469 109.361 160.324C109.026 160.179 108.723 159.966 108.473 159.7C108.222 159.434 108.029 159.119 107.904 158.775C107.78 158.431 107.727 158.065 107.75 157.7V112.32C107.791 111.639 108.091 110.999 108.588 110.532C109.085 110.064 109.742 109.804 110.425 109.804C111.107 109.804 111.764 110.064 112.261 110.532C112.758 110.999 113.058 111.639 113.1 112.32V157.7ZM143.46 114.1L130.19 157.49C130.087 157.826 129.92 158.138 129.697 158.408C129.474 158.679 129.199 158.903 128.89 159.068C128.58 159.233 128.241 159.335 127.892 159.369C127.543 159.403 127.19 159.367 126.855 159.265C126.519 159.163 126.207 158.995 125.936 158.772C125.666 158.549 125.441 158.275 125.276 157.965C125.112 157.655 125.009 157.316 124.976 156.967C124.942 156.618 124.977 156.266 125.08 155.93L138.34 112.53C138.57 111.878 139.043 111.34 139.66 111.029C140.278 110.718 140.992 110.657 141.653 110.86C142.313 111.063 142.871 111.513 143.207 112.117C143.544 112.721 143.635 113.431 143.46 114.1Z" fill="#F86C6F"/>
<path d="M3.75926 47.6772L2.88809 48.5025C1.63714 49.6875 1.58371 51.6623 2.76874 52.9132L46.0264 98.5771C47.2114 99.828 49.1862 99.8814 50.4371 98.6964L51.3083 97.8711C52.5593 96.6861 52.6127 94.7114 51.4277 93.4604L8.16999 47.7966C6.98496 46.5456 5.01021 46.4922 3.75926 47.6772Z" fill="#F86C6F"/>
<path d="M148.322 97.8677L149.193 98.6929C150.444 99.878 152.419 99.8245 153.604 98.5736L196.861 52.9098C198.046 51.6588 197.993 49.6841 196.742 48.499L195.871 47.6738C194.62 46.4887 192.645 46.5422 191.46 47.7931L148.202 93.4569C147.017 94.7079 147.071 96.6826 148.322 97.8677Z" fill="#F86C6F"/>
<path d="M53.7197 114.64L53.5497 114.1C53.3748 113.431 53.4652 112.721 53.802 112.117C54.1388 111.513 54.6959 111.063 55.3569 110.86C56.0179 110.657 56.7316 110.718 57.349 111.029C57.9663 111.34 58.4395 111.878 58.6697 112.53L59.3097 114.64H83.9097V112.32C83.9514 111.639 84.2513 110.999 84.7484 110.532C85.2455 110.064 85.9022 109.804 86.5847 109.804C87.2671 109.804 87.9239 110.064 88.421 110.532C88.918 110.999 89.218 111.639 89.2597 112.32V114.64H107.75V112.32C107.791 111.639 108.091 110.999 108.588 110.532C109.085 110.064 109.742 109.804 110.425 109.804C111.107 109.804 111.764 110.064 112.261 110.532C112.758 110.999 113.058 111.639 113.1 112.32V114.64H137.7L138.34 112.53C138.57 111.878 139.043 111.34 139.66 111.029C140.278 110.718 140.992 110.657 141.653 110.86C142.313 111.063 142.871 111.513 143.207 112.117C143.544 112.721 143.635 113.431 143.46 114.1L143.3 114.64H167.3C167.666 113.042 167.854 111.409 167.86 109.77V92.62C167.86 88.25 164.31 95.76 159.94 95.76H39.3497C34.9697 95.76 31.4297 88.25 31.4297 92.62V109.77C31.4358 111.409 31.6237 113.042 31.9897 114.64H53.7197Z" fill="#DD6268"/>
<path d="M168.85 84.7H30.42C28.4152 84.7 26.79 86.3252 26.79 88.33V103.19C26.79 105.195 28.4152 106.82 30.42 106.82H168.85C170.855 106.82 172.48 105.195 172.48 103.19V88.33C172.48 86.3252 170.855 84.7 168.85 84.7Z" fill="#F7E06D"/>
<path d="M99.92 30H98.96C97.5792 30 96.46 31.1193 96.46 32.5V47.76C96.46 49.1407 97.5792 50.26 98.96 50.26H99.92C101.301 50.26 102.42 49.1407 102.42 47.76V32.5C102.42 31.1193 101.301 30 99.92 30Z" fill="#6DA6F7"/>
<path d="M56.8499 44.5439L56.1711 45.2227C55.1948 46.199 55.1948 47.7819 56.1711 48.7582L66.9615 59.5487C67.9378 60.525 69.5208 60.525 70.4971 59.5487L71.1759 58.8699C72.1522 57.8936 72.1522 56.3106 71.1759 55.3343L60.3854 44.5439C59.4091 43.5676 57.8262 43.5676 56.8499 44.5439Z" fill="#6DA6F7"/>
<path d="M142.708 45.2222L142.029 44.5434C141.053 43.5671 139.47 43.5671 138.494 44.5434L127.704 55.3339C126.727 56.3102 126.727 57.8931 127.704 58.8694L128.382 59.5482C129.359 60.5245 130.942 60.5245 131.918 59.5482L142.708 48.7578C143.685 47.7814 143.685 46.1985 142.708 45.2222Z" fill="#6DA6F7"/>
</svg>
