<svg width="32" height="30" viewBox="0 0 32 30" fill="none" xmlns="http://www.w3.org/2000/svg">
<path d="M5.12514 19.3139L17.0221 19.3139L13.4977 22.8383C11.8614 24.4746 11.8614 27.1318 13.4977 28.7728C15.1341 30.4091 17.7913 30.4091 19.4322 28.7728L30.1218 18.0832C31.1288 17.0296 31.6229 15.5052 31.222 14.0787C31.1148 13.6918 30.9516 13.2629 30.7325 12.9226C30.5507 12.6429 30.3409 12.4004 30.1218 12.1487L19.2039 1.23072C18.3833 0.41024 17.3111 -1.22831e-06 16.2389 -1.32205e-06C15.1667 -1.41578e-06 14.0898 0.410287 13.274 1.23072C11.6377 2.86702 11.6377 5.52426 13.274 7.16527L17.0314 10.9227L5.13908 10.9227C2.82216 10.9227 0.943441 12.8014 0.943441 15.1183C0.943441 17.4352 2.80817 19.3139 5.12514 19.3139Z" fill="#6DA6F7"/>
</svg>
