<svg width="44" height="32" viewBox="0 0 44 32" fill="none" xmlns="http://www.w3.org/2000/svg">
<path d="M41.1441 30.9687C42.7034 30.9661 43.9657 29.6996 43.9631 28.1403L43.9224 3.78771C43.9198 2.22838 42.6533 0.966142 41.094 0.968746C39.5347 0.971351 38.2724 2.23781 38.275 3.79714L38.3157 28.1497C38.3183 29.709 39.5848 30.9713 41.1441 30.9687Z" fill="#6DA6F7"/>
<path d="M5.06631 20.3429L16.9633 20.323L13.4448 23.8532C11.8112 25.4923 11.8157 28.1495 13.4547 29.7877C15.0938 31.4213 17.751 31.4168 19.3892 29.7778L30.0609 19.0704C31.0661 18.0152 31.5577 16.4899 31.1544 15.0641C31.0466 14.6774 30.8827 14.2487 30.663 13.9088C30.4807 13.6294 30.2705 13.3873 30.051 13.1359L19.1148 2.23617C18.2929 1.41707 17.22 1.00861 16.1478 1.01041C15.0756 1.0122 13.9994 1.42428 13.1849 2.24608C11.5514 3.88511 11.5558 6.54235 13.1948 8.18062L16.9585 11.9318L5.06624 11.9516C2.74932 11.9555 0.873742 13.8373 0.877611 16.1543C0.881481 18.4711 2.74934 20.3467 5.06631 20.3429Z" fill="#6DA6F7"/>
</svg>
