<svg width="180" height="55" viewBox="0 0 180 55" fill="none" xmlns="http://www.w3.org/2000/svg">
<rect x="1" y="1.1709" width="178" height="52" rx="14" fill="white"/>
<path d="M29.07 25.8009C29.07 26.9109 28.885 27.8809 28.515 28.7109C28.155 29.5309 27.6 30.1709 26.85 30.6309C26.1 31.0909 25.14 31.3209 23.97 31.3209C22.81 31.3209 21.85 31.0909 21.09 30.6309C20.34 30.1709 19.78 29.5259 19.41 28.6959C19.05 27.8659 18.87 26.8959 18.87 25.7859C18.87 24.6759 19.05 23.7109 19.41 22.8909C19.78 22.0709 20.34 21.4359 21.09 20.9859C21.85 20.5259 22.815 20.2959 23.985 20.2959C25.145 20.2959 26.1 20.5259 26.85 20.9859C27.6 21.4359 28.155 22.0759 28.515 22.9059C28.885 23.7259 29.07 24.6909 29.07 25.8009ZM21.255 25.8009C21.255 26.9209 21.47 27.8059 21.9 28.4559C22.33 29.0959 23.02 29.4159 23.97 29.4159C24.94 29.4159 25.635 29.0959 26.055 28.4559C26.475 27.8059 26.685 26.9209 26.685 25.8009C26.685 24.6709 26.475 23.7859 26.055 23.1459C25.635 22.5059 24.945 22.1859 23.985 22.1859C23.025 22.1859 22.33 22.5059 21.9 23.1459C21.47 23.7859 21.255 24.6709 21.255 25.8009ZM35.8335 22.2009C34.9635 22.2009 34.2985 22.5259 33.8385 23.1759C33.3785 23.8259 33.1485 24.7159 33.1485 25.8459C33.1485 26.9859 33.3585 27.8709 33.7785 28.5009C34.2085 29.1209 34.8935 29.4309 35.8335 29.4309C36.2735 29.4309 36.7085 29.3809 37.1385 29.2809C37.5785 29.1809 38.0535 29.0409 38.5635 28.8609V30.7659C38.0935 30.9559 37.6285 31.0959 37.1685 31.1859C36.7085 31.2759 36.1935 31.3209 35.6235 31.3209C34.5235 31.3209 33.6135 31.0959 32.8935 30.6459C32.1835 30.1859 31.6585 29.5459 31.3185 28.7259C30.9785 27.8959 30.8085 26.9309 30.8085 25.8309C30.8085 24.7509 31.0035 23.7959 31.3935 22.9659C31.7835 22.1359 32.3485 21.4859 33.0885 21.0159C33.8385 20.5459 34.7535 20.3109 35.8335 20.3109C36.3635 20.3109 36.8935 20.3809 37.4235 20.5209C37.9635 20.6509 38.4785 20.8309 38.9685 21.0609L38.2335 22.9059C37.8335 22.7159 37.4285 22.5509 37.0185 22.4109C36.6185 22.2709 36.2235 22.2009 35.8335 22.2009ZM44.9643 31.1709H42.6993V22.3509H39.7893V20.4609H47.8743V22.3509H44.9643V31.1709ZM55.0261 31.1709L54.2461 28.6209H50.3461L49.5661 31.1709H47.1211L50.9011 20.4159H53.6761L57.4711 31.1709H55.0261ZM52.9261 24.2259C52.8761 24.0559 52.8111 23.8409 52.7311 23.5809C52.6511 23.3209 52.5711 23.0559 52.4911 22.7859C52.4111 22.5159 52.3461 22.2809 52.2961 22.0809C52.2461 22.2809 52.1761 22.5309 52.0861 22.8309C52.0061 23.1209 51.9261 23.4009 51.8461 23.6709C51.7761 23.9309 51.7211 24.1159 51.6811 24.2259L50.9161 26.7159H53.7061L52.9261 24.2259ZM62.1575 20.4609C63.5875 20.4609 64.6675 20.6609 65.3975 21.0609C66.1275 21.4609 66.4925 22.1659 66.4925 23.1759C66.4925 23.7859 66.3475 24.3009 66.0575 24.7209C65.7775 25.1409 65.3725 25.3959 64.8425 25.4859V25.5609C65.2025 25.6309 65.5275 25.7559 65.8175 25.9359C66.1075 26.1159 66.3375 26.3759 66.5075 26.7159C66.6775 27.0559 66.7625 27.5059 66.7625 28.0659C66.7625 29.0359 66.4125 29.7959 65.7125 30.3459C65.0125 30.8959 64.0525 31.1709 62.8325 31.1709H58.8275V20.4609H62.1575ZM62.4125 24.7059C63.0725 24.7059 63.5275 24.6009 63.7775 24.3909C64.0375 24.1809 64.1675 23.8759 64.1675 23.4759C64.1675 23.0659 64.0175 22.7709 63.7175 22.5909C63.4175 22.4109 62.9425 22.3209 62.2925 22.3209H61.0925V24.7059H62.4125ZM61.0925 26.5059V29.2959H62.5775C63.2575 29.2959 63.7325 29.1659 64.0025 28.9059C64.2725 28.6359 64.4075 28.2809 64.4075 27.8409C64.4075 27.4409 64.2675 27.1209 63.9875 26.8809C63.7175 26.6309 63.2225 26.5059 62.5025 26.5059H61.0925ZM68.9057 20.4609H70.9457V25.6359C70.9457 25.8859 70.9407 26.1659 70.9307 26.4759C70.9207 26.7859 70.9107 27.0909 70.9007 27.3909C70.8907 27.6809 70.8807 27.9359 70.8707 28.1559C70.8607 28.3659 70.8507 28.5109 70.8407 28.5909H70.8857L75.8357 20.4609H78.5507V31.1709H76.5257V26.0259C76.5257 25.7559 76.5307 25.4609 76.5407 25.1409C76.5507 24.8109 76.5607 24.4959 76.5707 24.1959C76.5907 23.8959 76.6057 23.6359 76.6157 23.4159C76.6357 23.1859 76.6507 23.0359 76.6607 22.9659H76.6007L71.6357 31.1709H68.9057V20.4609ZM85.3793 31.1709H83.1143V22.3509H80.2043V20.4609H88.2893V22.3509H85.3793V31.1709ZM89.9408 31.1709V20.4609H92.2058V24.5709H93.1058C94.1158 24.5709 94.9408 24.7109 95.5808 24.9909C96.2308 25.2709 96.7108 25.6559 97.0208 26.1459C97.3308 26.6359 97.4858 27.1959 97.4858 27.8259C97.4858 28.8859 97.1308 29.7109 96.4208 30.3009C95.7208 30.8809 94.6008 31.1709 93.0608 31.1709H89.9408ZM92.9708 29.3109C93.6608 29.3109 94.2008 29.2009 94.5908 28.9809C94.9908 28.7609 95.1908 28.3759 95.1908 27.8259C95.1908 27.2559 94.9758 26.8809 94.5458 26.7009C94.1158 26.5209 93.5308 26.4309 92.7908 26.4309H92.2058V29.3109H92.9708ZM109.758 22.9659C109.758 23.6859 109.503 24.2659 108.993 24.7059C108.483 25.1459 107.833 25.4209 107.043 25.5309V25.5759C108.023 25.6759 108.773 25.9509 109.293 26.4009C109.823 26.8409 110.088 27.4159 110.088 28.1259C110.088 29.0659 109.703 29.8359 108.933 30.4359C108.173 31.0259 107.053 31.3209 105.573 31.3209C104.763 31.3209 104.043 31.2709 103.413 31.1709C102.793 31.0709 102.253 30.9259 101.793 30.7359V28.8309C102.103 28.9809 102.453 29.1109 102.843 29.2209C103.233 29.3209 103.628 29.4009 104.028 29.4609C104.428 29.5109 104.798 29.5359 105.138 29.5359C106.088 29.5359 106.773 29.4009 107.193 29.1309C107.623 28.8509 107.838 28.4609 107.838 27.9609C107.838 27.4509 107.528 27.0809 106.908 26.8509C106.288 26.6109 105.453 26.4909 104.403 26.4909H103.398V24.7209H104.298C105.148 24.7209 105.808 24.6659 106.278 24.5559C106.748 24.4459 107.078 24.2859 107.268 24.0759C107.458 23.8659 107.553 23.6159 107.553 23.3259C107.553 22.9559 107.388 22.6659 107.058 22.4559C106.738 22.2359 106.253 22.1259 105.603 22.1259C105.053 22.1259 104.533 22.2059 104.043 22.3659C103.563 22.5259 103.113 22.7359 102.693 22.9959L101.703 21.4809C102.253 21.1209 102.863 20.8359 103.533 20.6259C104.203 20.4159 104.998 20.3109 105.918 20.3109C107.128 20.3109 108.068 20.5609 108.738 21.0609C109.418 21.5609 109.758 22.1959 109.758 22.9659ZM118.644 31.1709L117.864 28.6209H113.964L113.184 31.1709H110.739L114.519 20.4159H117.294L121.089 31.1709H118.644ZM116.544 24.2259C116.494 24.0559 116.429 23.8409 116.349 23.5809C116.269 23.3209 116.189 23.0559 116.109 22.7859C116.029 22.5159 115.964 22.2809 115.914 22.0809C115.864 22.2809 115.794 22.5309 115.704 22.8309C115.624 23.1209 115.544 23.4009 115.464 23.6709C115.394 23.9309 115.339 24.1159 115.299 24.2259L114.534 26.7159H117.324L116.544 24.2259ZM126.046 27.0609L123.541 31.1709H121.021L124.066 26.4609C123.776 26.3409 123.486 26.1659 123.196 25.9359C122.906 25.6959 122.666 25.3809 122.476 24.9909C122.286 24.5909 122.191 24.1009 122.191 23.5209C122.191 22.5309 122.546 21.7759 123.256 21.2559C123.966 20.7259 124.961 20.4609 126.241 20.4609H129.721V31.1709H127.456V27.0609H126.046ZM126.331 22.3209C125.751 22.3209 125.296 22.4259 124.966 22.6359C124.646 22.8459 124.486 23.1959 124.486 23.6859C124.486 24.1559 124.641 24.5309 124.951 24.8109C125.271 25.0809 125.751 25.2159 126.391 25.2159H127.456V22.3209H126.331ZM135.751 20.4609C137.181 20.4609 138.261 20.6609 138.991 21.0609C139.721 21.4609 140.086 22.1659 140.086 23.1759C140.086 23.7859 139.941 24.3009 139.651 24.7209C139.371 25.1409 138.966 25.3959 138.436 25.4859V25.5609C138.796 25.6309 139.121 25.7559 139.411 25.9359C139.701 26.1159 139.931 26.3759 140.101 26.7159C140.271 27.0559 140.356 27.5059 140.356 28.0659C140.356 29.0359 140.006 29.7959 139.306 30.3459C138.606 30.8959 137.646 31.1709 136.426 31.1709H132.421V20.4609H135.751ZM136.006 24.7059C136.666 24.7059 137.121 24.6009 137.371 24.3909C137.631 24.1809 137.761 23.8759 137.761 23.4759C137.761 23.0659 137.611 22.7709 137.311 22.5909C137.011 22.4109 136.536 22.3209 135.886 22.3209H134.686V24.7059H136.006ZM134.686 26.5059V29.2959H136.171C136.851 29.2959 137.326 29.1659 137.596 28.9059C137.866 28.6359 138.001 28.2809 138.001 27.8409C138.001 27.4409 137.861 27.1209 137.581 26.8809C137.311 26.6309 136.816 26.5059 136.096 26.5059H134.686ZM151.229 31.1709H148.649L144.764 25.7409V31.1709H142.499V20.4609H144.764V25.6509L148.604 20.4609H151.019L147.119 25.6059L151.229 31.1709ZM157.858 28.0359C157.558 28.7159 157.238 29.3059 156.898 29.8059C156.568 30.2959 156.143 30.6709 155.623 30.9309C155.103 31.1909 154.423 31.3209 153.583 31.3209C153.323 31.3209 153.038 31.3009 152.728 31.2609C152.418 31.2209 152.133 31.1659 151.873 31.0959V29.1459C152.113 29.2459 152.378 29.3159 152.668 29.3559C152.958 29.3959 153.228 29.4159 153.478 29.4159C153.978 29.4159 154.338 29.2959 154.558 29.0559C154.778 28.8059 154.953 28.5059 155.083 28.1559L151.378 20.4609H153.778L155.773 25.0959C155.843 25.2459 155.938 25.4609 156.058 25.7409C156.178 26.0109 156.268 26.2409 156.328 26.4309H156.403C156.463 26.2509 156.548 26.0159 156.658 25.7259C156.778 25.4359 156.883 25.1809 156.973 24.9609L158.833 20.4609H161.173L157.858 28.0359Z" fill="#6DA6F7"/>
<rect x="1" y="1.1709" width="178" height="52" rx="14" stroke="#6DA6F7" stroke-width="2"/>
</svg>
