<svg width="164" height="178" viewBox="0 0 164 178" fill="none" xmlns="http://www.w3.org/2000/svg">
<path d="M8.23486 88.7348L76.7949 131.505C78.2185 132.387 79.8601 132.854 81.5349 132.854C83.2096 132.854 84.8512 132.387 86.2749 131.505L155.675 88.7048C156.127 88.4237 156.474 88.0032 156.666 87.5069C156.857 87.0106 156.882 86.4654 156.737 85.9538C156.591 85.4421 156.283 84.9918 155.858 84.6708C155.434 84.3499 154.917 84.1758 154.385 84.1748H9.52487C8.98365 84.1647 8.45435 84.3342 8.0196 84.6567C7.58486 84.9792 7.26917 85.4366 7.12182 85.9574C6.97447 86.4783 7.00376 87.0333 7.20513 87.5357C7.40649 88.0382 7.76859 88.4598 8.23486 88.7348Z" fill="#DD6268"/>
<path d="M138.285 45.7448H24.775C21.5387 45.7448 18.915 48.3684 18.915 51.6048V165.115C18.915 168.351 21.5387 170.975 24.775 170.975H138.285C141.521 170.975 144.145 168.351 144.145 165.115V51.6048C144.145 48.3684 141.521 45.7448 138.285 45.7448Z" fill="#F7E06D"/>
<path d="M82.5244 0.644765H81.5244C81.1958 0.643442 80.8701 0.707205 80.5662 0.832373C80.2622 0.957541 79.9861 1.14164 79.7537 1.37405C79.5213 1.60646 79.3372 1.88258 79.212 2.18649C79.0869 2.49041 79.0231 2.81609 79.0244 3.14477V18.4048C79.0231 18.7334 79.0869 19.0591 79.212 19.363C79.3372 19.6669 79.5213 19.9431 79.7537 20.1755C79.9861 20.4079 80.2622 20.592 80.5662 20.7172C80.8701 20.8423 81.1958 20.9061 81.5244 20.9048H82.5244C83.1875 20.9048 83.8234 20.6414 84.2922 20.1725C84.761 19.7037 85.0244 19.0678 85.0244 18.4048V3.14477C85.0244 2.48172 84.761 1.84584 84.2922 1.377C83.8234 0.908157 83.1875 0.644765 82.5244 0.644765Z" fill="#6DA6F7"/>
<path d="M39.4146 15.1948L38.7346 15.8748C38.5021 16.1061 38.3176 16.3812 38.1917 16.6841C38.0658 16.987 38.001 17.3118 38.001 17.6398C38.001 17.9678 38.0658 18.2926 38.1917 18.5955C38.3176 18.8984 38.5021 19.1734 38.7346 19.4048L49.5246 30.1948C49.756 30.4273 50.031 30.6118 50.3339 30.7377C50.6368 30.8636 50.9616 30.9284 51.2896 30.9284C51.6176 30.9284 51.9424 30.8636 52.2453 30.7377C52.5482 30.6118 52.8232 30.4273 53.0546 30.1948L53.7346 29.5148C53.9671 29.2834 54.1516 29.0084 54.2775 28.7055C54.4034 28.4026 54.4682 28.0778 54.4682 27.7498C54.4682 27.4218 54.4034 27.097 54.2775 26.7941C54.1516 26.4912 53.9671 26.2161 53.7346 25.9848L42.9446 15.1948C42.7132 14.9623 42.4382 14.7778 42.1353 14.6519C41.8324 14.526 41.5076 14.4612 41.1796 14.4612C40.8516 14.4612 40.5268 14.526 40.2239 14.6519C39.921 14.7778 39.646 14.9623 39.4146 15.1948Z" fill="#6DA6F7"/>
<path d="M125.265 15.8748L124.585 15.1948C124.353 14.9623 124.078 14.7778 123.776 14.6519C123.473 14.526 123.148 14.4612 122.82 14.4612C122.492 14.4612 122.167 14.526 121.864 14.6519C121.561 14.7778 121.286 14.9623 121.055 15.1948L110.265 25.9848C110.032 26.2161 109.848 26.4912 109.722 26.7941C109.596 27.097 109.531 27.4218 109.531 27.7498C109.531 28.0778 109.596 28.4026 109.722 28.7055C109.848 29.0084 110.032 29.2834 110.265 29.5148L110.945 30.1948C111.176 30.4273 111.451 30.6118 111.754 30.7377C112.057 30.8636 112.382 30.9284 112.71 30.9284C113.038 30.9284 113.363 30.8636 113.666 30.7377C113.968 30.6118 114.243 30.4273 114.475 30.1948L125.265 19.4048C125.497 19.1734 125.682 18.8984 125.808 18.5955C125.934 18.2926 125.998 17.9678 125.998 17.6398C125.998 17.3118 125.934 16.987 125.808 16.6841C125.682 16.3812 125.497 16.1061 125.265 15.8748Z" fill="#6DA6F7"/>
<path d="M83.7447 55.6648H34.0347C32.1127 55.6648 30.5547 57.2206 30.5547 59.1398C30.5547 61.059 32.1127 62.6148 34.0347 62.6148H83.7447C85.6666 62.6148 87.2247 61.059 87.2247 59.1398C87.2247 57.2206 85.6666 55.6648 83.7447 55.6648Z" fill="white"/>
<path d="M53.3347 72.6648H34.0347C32.1127 72.6648 30.5547 74.2206 30.5547 76.1398C30.5547 78.059 32.1127 79.6148 34.0347 79.6148H53.3347C55.2566 79.6148 56.8147 78.059 56.8147 76.1398C56.8147 74.2206 55.2566 72.6648 53.3347 72.6648Z" fill="white"/>
<path d="M129.014 72.6648H69.0845C67.1625 72.6648 65.6045 74.2206 65.6045 76.1398C65.6045 78.059 67.1625 79.6148 69.0845 79.6148H129.014C130.936 79.6148 132.494 78.059 132.494 76.1398C132.494 74.2206 130.936 72.6648 129.014 72.6648Z" fill="white"/>
<path d="M96.8147 89.6648H34.0347C32.1127 89.6648 30.5547 91.2206 30.5547 93.1398C30.5547 95.059 32.1127 96.6148 34.0347 96.6148H96.8147C98.7366 96.6148 100.295 95.059 100.295 93.1398C100.295 91.2206 98.7366 89.6648 96.8147 89.6648Z" fill="white"/>
<path d="M129.015 89.6648H114.945C113.023 89.6648 111.465 91.2206 111.465 93.1398C111.465 95.059 113.023 96.6148 114.945 96.6148H129.015C130.937 96.6148 132.495 95.059 132.495 93.1398C132.495 91.2206 130.937 89.6648 129.015 89.6648Z" fill="white"/>
<path d="M106.055 106.665H34.0347C32.1127 106.665 30.5547 108.221 30.5547 110.14C30.5547 112.059 32.1127 113.615 34.0347 113.615H106.055C107.977 113.615 109.535 112.059 109.535 110.14C109.535 108.221 107.977 106.665 106.055 106.665Z" fill="white"/>
<path d="M129.015 123.665H34.0347C32.1127 123.665 30.5547 125.221 30.5547 127.14C30.5547 129.059 32.1127 130.615 34.0347 130.615H129.015C130.937 130.615 132.495 129.059 132.495 127.14C132.495 125.221 130.937 123.665 129.015 123.665Z" fill="white"/>
<path d="M155.035 84.2848C155.496 84.4104 155.91 84.6681 156.226 85.0261C156.542 85.3841 156.747 85.8268 156.815 86.2997C156.883 86.7726 156.811 87.255 156.609 87.6877C156.406 88.1203 156.081 88.4843 155.675 88.7348L86.2746 131.535C84.8509 132.417 83.2094 132.884 81.5346 132.884C79.8598 132.884 78.2183 132.417 76.7946 131.535L8.23461 88.7348C7.83803 88.4895 7.51968 88.1361 7.31695 87.7162C7.11422 87.2963 7.03554 86.8272 7.09014 86.3642C7.14475 85.9011 7.33037 85.4632 7.62521 85.1019C7.92005 84.7407 8.31186 84.4711 8.75461 84.3248C6.58693 84.6592 4.61065 85.7588 3.18355 87.4244C1.75645 89.0899 0.972851 91.2114 0.974615 93.4048V168.615C0.973301 169.824 1.2103 171.021 1.67205 172.139C2.13381 173.256 2.81126 174.271 3.66569 175.127C4.52012 175.982 5.53477 176.661 6.65161 177.123C7.76846 177.586 8.96561 177.825 10.1746 177.825H153.825C155.034 177.825 156.231 177.586 157.348 177.123C158.464 176.661 159.479 175.982 160.334 175.127C161.188 174.271 161.865 173.256 162.327 172.139C162.789 171.021 163.026 169.824 163.025 168.615V93.4048C163.022 91.175 162.211 89.0217 160.742 87.3445C159.273 85.6673 157.245 84.5801 155.035 84.2848Z" fill="#F86C6F"/>
<path d="M64.855 160.025H15.145C13.2231 160.025 11.665 161.581 11.665 163.5C11.665 165.419 13.2231 166.975 15.145 166.975H64.855C66.777 166.975 68.335 165.419 68.335 163.5C68.335 161.581 66.777 160.025 64.855 160.025Z" fill="white"/>
<path d="M37.655 146.475H15.145C13.2231 146.475 11.665 148.031 11.665 149.95C11.665 151.869 13.2231 153.425 15.145 153.425H37.655C39.577 153.425 41.135 151.869 41.135 149.95C41.135 148.031 39.577 146.475 37.655 146.475Z" fill="white"/>
</svg>
