<svg width="107" height="101" viewBox="0 0 107 101" fill="none" xmlns="http://www.w3.org/2000/svg">
<path d="M104.946 42.4099C105.479 41.8887 105.857 41.2285 106.035 40.5041C106.213 39.7796 106.185 39.0197 105.954 38.3103C105.722 37.601 105.298 36.9705 104.727 36.4903C104.156 36.01 103.463 35.6991 102.725 35.5927L73.262 31.309C72.6212 31.2159 72.0127 30.9682 71.4889 30.5873C70.9651 30.2065 70.5418 29.7038 70.2554 29.1227L57.0743 2.39845C56.7442 1.73016 56.2339 1.16756 55.6011 0.774189C54.9682 0.380821 54.2381 0.172363 53.4931 0.172363C52.7481 0.172363 52.018 0.380821 51.3851 0.774189C50.7523 1.16756 50.242 1.73016 49.9119 2.39845L36.7308 29.1172C36.4444 29.6983 36.0211 30.2009 35.4973 30.5818C34.9735 30.9627 34.365 31.2103 33.7243 31.3035L4.25283 35.5927C3.51488 35.6991 2.8214 36.01 2.25085 36.4903C1.6803 36.9705 1.25545 37.601 1.02437 38.3103C0.793278 39.0197 0.765175 39.7796 0.943235 40.5041C1.12129 41.2285 1.49842 41.8887 2.03193 42.4099L23.3582 63.2115C23.8215 63.6643 24.1679 64.2231 24.3676 64.8396C24.5674 65.4561 24.6144 66.1119 24.5047 66.7506L19.4799 96.1223C19.3537 96.8572 19.4356 97.6128 19.7163 98.3035C19.997 98.9943 20.4653 99.5926 21.0682 100.031C21.6711 100.469 22.3845 100.73 23.1277 100.783C23.8709 100.837 24.6143 100.681 25.2737 100.334L51.647 86.466C52.2198 86.165 52.8572 86.0078 53.5042 86.0078C54.1512 86.0078 54.7886 86.165 55.3614 86.466L81.7347 100.334C82.3941 100.681 83.1375 100.837 83.8807 100.783C84.624 100.73 85.3374 100.469 85.9403 100.031C86.5432 99.5926 87.0114 98.9943 87.2921 98.3035C87.5728 97.6128 87.6547 96.8572 87.5285 96.1223L82.4732 66.7506C82.3635 66.1119 82.4105 65.4561 82.6103 64.8396C82.81 64.2231 83.1564 63.6643 83.6197 63.2115L104.946 42.4099Z" fill="#FFFCEE"/>
</svg>
